<svg width="24" height="24" viewBox="0 0 24 24" fill="none" xmlns="http://www.w3.org/2000/svg">
<rect width="24" height="24" rx="12" fill="#FC5B41" fill-opacity="0.3"/>
<path d="M10.3536 6.64645C10.1583 6.45118 9.84171 6.45118 9.64645 6.64645C9.45118 6.84171 9.45118 7.15829 9.64645 7.35355L10.3536 6.64645ZM15 12L15.3536 12.3536L15.7071 12L15.3536 11.6464L15 12ZM9.64645 16.6464C9.45118 16.8417 9.45118 17.1583 9.64645 17.3536C9.84171 17.5488 10.1583 17.5488 10.3536 17.3536L9.64645 16.6464ZM9.64645 7.35355L14.6464 12.3536L15.3536 11.6464L10.3536 6.64645L9.64645 7.35355ZM14.6464 11.6464L9.64645 16.6464L10.3536 17.3536L15.3536 12.3536L14.6464 11.6464Z" fill="#F92908"/>
</svg>
