<svg width="20" height="20" viewBox="0 0 20 20" fill="none" xmlns="http://www.w3.org/2000/svg">
<path d="M16.5 16H3.5C3.225 16 3 16.225 3 16.5V17.5C3 17.775 3.225 18 3.5 18H16.5C16.775 18 17 17.775 17 17.5V16.5C17 16.225 16.775 16 16.5 16ZM18.5 6C17.6719 6 17 6.67188 17 7.5C17 7.72188 17.05 7.92812 17.1375 8.11875L14.875 9.475C14.3938 9.7625 13.7719 9.6 13.4937 9.1125L10.9469 4.65625C11.2812 4.38125 11.5 3.96875 11.5 3.5C11.5 2.67188 10.8281 2 10 2C9.17188 2 8.5 2.67188 8.5 3.5C8.5 3.96875 8.71875 4.38125 9.05313 4.65625L6.50625 9.1125C6.22813 9.6 5.60313 9.7625 5.125 9.475L2.86562 8.11875C2.95 7.93125 3.00312 7.72188 3.00312 7.5C3.00312 6.67188 2.33125 6 1.50312 6C0.675 6 0 6.67188 0 7.5C0 8.32812 0.671875 9 1.5 9C1.58125 9 1.6625 8.9875 1.74063 8.975L4 15H16L18.2594 8.975C18.3375 8.9875 18.4188 9 18.5 9C19.3281 9 20 8.32812 20 7.5C20 6.67188 19.3281 6 18.5 6Z" fill="white"/>
</svg>
