<svg width="24" height="24" viewBox="0 0 24 24" fill="none" xmlns="http://www.w3.org/2000/svg">
<path fill-rule="evenodd" clip-rule="evenodd" d="M12 0C5.37258 0 0 5.37258 0 12C0 18.6274 5.37258 24 12 24C18.6274 24 24 18.6274 24 12C24 5.37258 18.6274 0 12 0ZM12.8012 12.7016V19.9999L9.864 20V12.7016H7.40796V9.85733H9.86407V7.75971C9.86407 5.32545 11.3508 4 13.5223 4C14.5624 4 15.4565 4.07742 15.7171 4.11195V6.65585L14.2109 6.65655C13.0299 6.65655 12.8012 7.21779 12.8012 8.04126V9.85726H15.6178L15.251 12.7016H12.8012Z" fill="#4267B2"/>
</svg>
