<svg width="16" height="16" viewBox="0 0 16 16" fill="none" xmlns="http://www.w3.org/2000/svg">
<g clip-path="url(#clip0_4_811)">
<path d="M7.96094 6.38281C7.92969 5.92969 7.75781 5.55469 7.44531 5.25781C7.28906 5.11719 7.15885 5.01953 7.05469 4.96484C6.95052 4.91016 6.79427 4.85938 6.58594 4.8125C6.59115 4.78646 6.60286 4.71875 6.62109 4.60938C6.63932 4.5 6.65625 4.40885 6.67188 4.33594L5.96094 4.24219L5.88281 4.63281C5.47135 4.5599 5.11719 4.56771 4.82031 4.65625V3.76562C5.60677 3.73438 6.40365 3.67448 7.21094 3.58594L7.10156 2.85156C6.44531 2.96094 5.70052 3.03646 4.86719 3.07812C4.8776 2.92188 4.89323 2.79427 4.91406 2.69531C4.9349 2.59635 4.95052 2.5 4.96094 2.40625C4.9349 2.40625 4.84115 2.40495 4.67969 2.40234C4.51823 2.39974 4.38021 2.39844 4.26562 2.39844C4.25521 2.49219 4.24089 2.59635 4.22266 2.71094C4.20443 2.82552 4.1901 2.95833 4.17969 3.10938L2.97656 3.13281L3.08594 3.86719L4.02344 3.82031L4.0625 4.89062C3.54167 5.15104 3.14974 5.44792 2.88672 5.78125C2.6237 6.11458 2.49219 6.55469 2.49219 7.10156C2.49219 7.4349 2.57031 7.6875 2.72656 7.85938C2.88281 8.03125 3.07812 8.11849 3.3125 8.12109C3.54688 8.1237 3.79167 8.07943 4.04688 7.98828C4.30208 7.89714 4.53385 7.76823 4.74219 7.60156L4.88281 7.88281L5.44531 7.52344L5.28125 7.1875C5.45833 7.01042 5.59896 6.86328 5.70312 6.74609C5.80729 6.62891 5.9388 6.44271 6.09766 6.1875C6.25651 5.93229 6.38021 5.66667 6.46875 5.39062C6.78125 5.47917 6.99479 5.59115 7.10938 5.72656C7.22396 5.86198 7.27344 6.08594 7.25781 6.39844C7.00781 6.45052 6.79948 6.57552 6.63281 6.77344C6.46615 6.97135 6.38281 7.20052 6.38281 7.46094V7.65625C6.1901 7.70833 5.97917 7.74219 5.75 7.75781L6.10938 8.32812C6.13542 8.32292 6.22656 8.30729 6.38281 8.28125V8.8125H2.39844C2.23698 8.8125 2.09896 8.75391 1.98438 8.63672C1.86979 8.51953 1.8125 8.38021 1.8125 8.21875V2.39844C1.8125 2.23698 1.86979 2.09896 1.98438 1.98438C2.09896 1.86979 2.23698 1.8125 2.39844 1.8125H8.21875C8.38021 1.8125 8.51953 1.86979 8.63672 1.98438C8.75391 2.09896 8.8125 2.23698 8.8125 2.39844V6.38281H7.96094ZM9.61719 6.38281V2.07812C9.61719 1.78125 9.51042 1.52734 9.29688 1.31641C9.08333 1.10547 8.83073 1 8.53906 1H2.07812C1.78125 1 1.52734 1.10547 1.31641 1.31641C1.10547 1.52734 1 1.78125 1 2.07812V8.53906C1 8.83073 1.10547 9.08333 1.31641 9.29688C1.52734 9.51042 1.78125 9.61719 2.07812 9.61719H6.38281V13.9219C6.38281 14.2188 6.48958 14.4727 6.70312 14.6836C6.91667 14.8945 7.16927 15 7.46094 15H13.9219C14.2188 15 14.4727 14.8945 14.6836 14.6836C14.8945 14.4727 15 14.2188 15 13.9219V7.46094C15 7.16927 14.8945 6.91667 14.6836 6.70312C14.4727 6.48958 14.2188 6.38281 13.9219 6.38281H9.61719ZM4.13281 5.5625C4.1849 6.1875 4.26823 6.65885 4.38281 6.97656C4.29427 7.0599 4.1888 7.14062 4.06641 7.21875C3.94401 7.29688 3.8151 7.36198 3.67969 7.41406C3.54427 7.46615 3.42969 7.46224 3.33594 7.40234C3.24219 7.34245 3.19531 7.21875 3.19531 7.03125C3.19531 6.71875 3.28125 6.42969 3.45312 6.16406C3.625 5.89844 3.85156 5.69792 4.13281 5.5625ZM4.83594 5.30469C5.11719 5.16927 5.42708 5.15104 5.76562 5.25C5.72917 5.38021 5.67839 5.50391 5.61328 5.62109C5.54818 5.73828 5.48958 5.82943 5.4375 5.89453C5.38542 5.95964 5.3125 6.04948 5.21875 6.16406L5.00781 6.42188C4.98177 6.35417 4.95833 6.28646 4.9375 6.21875C4.91667 6.15104 4.90104 6.09635 4.89062 6.05469C4.88021 6.01302 4.87109 5.95052 4.86328 5.86719C4.85547 5.78385 4.85026 5.73047 4.84766 5.70703C4.84505 5.68359 4.84245 5.61589 4.83984 5.50391C4.83724 5.39193 4.83594 5.32552 4.83594 5.30469ZM8.77344 13.6562H7.74219L10.1641 7.73438H11.2188L13.6406 13.6562H12.6094L11.9141 11.9531H9.47656L8.77344 13.6562ZM10.6953 8.97656L9.78906 11.1719H11.5938L10.6953 8.97656Z" fill="black"/>
</g>
<defs>
<clipPath id="clip0_4_811">
<rect width="14" height="14" fill="white" transform="translate(1 1)"/>
</clipPath>
</defs>
</svg>
