<svg width="59" height="90" viewBox="0 0 59 90" fill="none" xmlns="http://www.w3.org/2000/svg">
<path opacity="0.1" d="M29.5 90C45.7924 90 59 76.7924 59 60.5C59 44.2076 45.7924 31 29.5 31C13.2076 31 0 44.2076 0 60.5C0 76.7924 13.2076 90 29.5 90Z" fill="#FF7738"/>
<path opacity="0.2" d="M29.4999 76.2334C38.1892 76.2334 45.2333 69.1893 45.2333 60.5001C45.2333 51.8108 38.1892 44.7667 29.4999 44.7667C20.8107 44.7667 13.7666 51.8108 13.7666 60.5001C13.7666 69.1893 20.8107 76.2334 29.4999 76.2334Z" fill="#FF7738"/>
<path opacity="0.3" d="M29.5 68.3666C33.8446 68.3666 37.3666 64.8446 37.3666 60.5C37.3666 56.1553 33.8446 52.6333 29.5 52.6333C25.1553 52.6333 21.6333 56.1553 21.6333 60.5C21.6333 64.8446 25.1553 68.3666 29.5 68.3666Z" fill="#FF7738"/>
<path d="M29.5002 63.1223C30.9484 63.1223 32.1224 61.9482 32.1224 60.5C32.1224 59.0518 30.9484 57.8778 29.5002 57.8778C28.0519 57.8778 26.8779 59.0518 26.8779 60.5C26.8779 61.9482 28.0519 63.1223 29.5002 63.1223Z" fill="#FF7738"/>
<path d="M29.4036 15.0044C31.8482 15.0044 42.7652 15.2523 42.8544 29.3522C42.8544 47.6647 29.4036 61.1744 29.4036 61.1744C29.4036 61.1744 16 44.1387 16 29.7878C16 15.437 26.9591 15.0044 29.4036 15.0044Z" fill="#FC7C35"/>
<path d="M29.4036 15.0043C32.4046 14.9314 35.3553 15.7847 37.8551 17.4483C22.0732 24.4782 29.4036 61.1742 29.4036 61.1742C29.4036 61.1742 16 44.1385 16 29.7877C16 15.4369 26.9591 15.0043 29.4036 15.0043Z" fill="#CF5612"/>
<path d="M29.4028 34.9689C32.3859 34.9689 34.8042 32.5481 34.8042 29.562C34.8042 26.5758 32.3859 24.155 29.4028 24.155C26.4197 24.155 24.0015 26.5758 24.0015 29.562C24.0015 32.5481 26.4197 34.9689 29.4028 34.9689Z" fill="white"/>
<path d="M29.4029 24.155C23.8982 27.2555 25.3751 32.3542 29.4029 34.9699C27.9702 34.9699 26.5962 34.4002 25.5831 33.3861C24.5701 32.372 24.001 30.9966 24.001 29.5625C24.001 28.1283 24.5701 26.7529 25.5831 25.7388C26.5962 24.7247 27.9702 24.155 29.4029 24.155V24.155Z" fill="#D1D1CC"/>
<path d="M28.9877 35.3853C30.3102 35.3853 31.5784 35.9111 32.5136 36.8472C33.4487 37.7833 33.974 39.0528 33.974 40.3766C33.974 43.1328 31.0432 59.0945 29.2444 59.0945C27.4456 59.0945 24.0015 43.1328 24.0015 40.3766C24.0015 39.0528 24.5268 37.7833 25.4619 36.8472C26.397 35.9111 27.6653 35.3853 28.9877 35.3853Z" fill="white"/>
<path d="M28.9877 35.3853C24.3023 37.8102 24.6632 44.9997 29.2444 59.0945C27.4456 59.0945 24.0015 43.1328 24.0015 40.3766C24.0015 39.0528 24.5268 37.7833 25.4619 36.8472C26.397 35.9111 27.6653 35.3853 28.9877 35.3853Z" fill="#D1D1CC"/>
</svg>
