<svg width="24" height="24" viewBox="0 0 24 24" fill="none" xmlns="http://www.w3.org/2000/svg">
<path d="M11.5994 14.2683C11.7097 14.3659 11.8516 14.4197 11.9986 14.4197C12.1456 14.4197 12.2875 14.3659 12.3978 14.2683C12.5429 14.14 15.9354 11.1036 15.9354 7.95338C15.9354 6.90488 15.5206 5.89932 14.7823 5.15792C14.044 4.41652 13.0427 4 11.9986 4C10.9545 4 9.95314 4.41652 9.21485 5.15792C8.47656 5.89932 8.06179 6.90488 8.06179 7.95338C8.06179 11.1036 11.4557 14.1415 11.5994 14.2683ZM11.9986 6.91985C12.2027 6.91725 12.4029 6.97564 12.5739 7.08762C12.7449 7.19959 12.8788 7.36008 12.9587 7.54869C13.0386 7.7373 13.0609 7.94551 13.0226 8.14685C12.9844 8.3482 12.8874 8.53358 12.744 8.67944C12.6006 8.82529 12.4173 8.92504 12.2173 8.96599C12.0173 9.00695 11.8097 8.98726 11.6209 8.90944C11.432 8.83161 11.2705 8.69916 11.1568 8.52892C11.0432 8.35869 10.9825 8.15835 10.9825 7.95338C10.9813 7.68118 11.0875 7.41961 11.278 7.22591C11.4684 7.03221 11.7275 6.92216 11.9986 6.91985Z" fill="black"/>
<path d="M19.563 14.2671L19.1072 12.6636C19.0707 12.5373 18.9943 12.4264 18.8896 12.3475C18.7848 12.2687 18.6574 12.2261 18.5265 12.2263H15.272C15.1539 12.4022 15.0295 12.5785 14.8989 12.7554C14.3218 13.5345 13.6714 14.256 12.9566 14.9099C12.6917 15.1436 12.3512 15.2725 11.9985 15.2725C11.6459 15.2725 11.3054 15.1436 11.0405 14.9099C10.3257 14.256 9.67532 13.5345 9.0982 12.7554C8.96658 12.5785 8.84223 12.4022 8.72513 12.2263H5.46913C5.33822 12.2261 5.21081 12.2687 5.10608 12.3475C5.00136 12.4264 4.92499 12.5373 4.88848 12.6636L4.34558 14.5761L16.4957 16.8108L19.563 14.2671Z" fill="black"/>
<path d="M20.9725 19.2274L19.8112 15.1267L14.0309 20H20.3962C20.4897 20 20.5818 19.9782 20.6654 19.9364C20.749 19.8945 20.8219 19.8338 20.8781 19.7589C20.9344 19.684 20.9726 19.597 20.9898 19.5048C21.0069 19.4126 21.0025 19.3176 20.9769 19.2274H20.9725Z" fill="black"/>
<path d="M5.95691 15.7345L4.11186 15.3948L3.02312 19.2271C2.99752 19.3174 2.99311 19.4123 3.01024 19.5046C3.02738 19.5968 3.06559 19.6838 3.12187 19.7586C3.17815 19.8335 3.25097 19.8943 3.33459 19.9361C3.41821 19.9779 3.51035 19.9997 3.60378 19.9997H5.95691V15.7345Z" fill="black"/>
<path d="M6.80318 15.8891V19.9984H12.7127L15.6566 17.5203L6.80318 15.8891Z" fill="black"/>
</svg>
