<svg width="40" height="40" viewBox="0 0 40 40" fill="none" xmlns="http://www.w3.org/2000/svg">
<path fill-rule="evenodd" clip-rule="evenodd" d="M19.5235 25.9627C19.9272 26.063 20.3439 26.1665 20.7572 26.2958C18.8217 27.2115 16.5001 28.8042 16.5001 32.5H2.5C2.5 27.2368 5.29226 26.5443 7.64363 25.9611C9.01526 25.621 10.2369 25.318 10.6667 24.1667V22.0833C10.1417 21.851 8.64019 20.2552 8.48269 19.0073C8.06969 18.9792 7.42102 18.6406 7.22969 17.3042C7.12702 16.5875 7.53535 16.1833 7.78269 16.0563C6.50635 11.5344 7.15619 7.59792 13.5157 7.5C15.1059 7.5 16.3286 7.85729 16.8057 8.5625C18.5896 8.71979 19.4214 9.91146 19.7399 11.326C18.8482 13.3836 18.8492 15.9993 18.8497 17.3314C18.8497 17.3622 18.8497 17.3924 18.8497 17.4219C18.8497 17.6594 18.7774 18.7135 18.6841 19.0083C18.5254 20.2552 17.0251 21.851 16.5001 22.0833V24.1667C16.93 25.3183 18.1518 25.6219 19.5235 25.9627ZM22.8571 27.6943C20.9274 28.5024 18.8333 29.3793 18.8333 32.4999H37.5C37.5 29.3793 35.406 28.5024 33.4762 27.6943C32.1852 27.1536 30.9677 26.6437 30.5 25.5134V24.1718C34.7455 24.1718 35.7302 22.6718 35.7302 22.6718C34.9364 22.09 34.8704 20.3203 34.792 18.2213C34.6358 14.0362 34.4308 8.54156 28.3113 8.54156C27 8.54156 25.985 9.58323 25.985 9.58323C21.1158 9.58323 21.1533 14.3722 21.1833 18.1907C21.1996 20.2661 21.2136 22.0548 20.4363 22.6322C20.4363 22.6322 21.6088 24.1853 25.8333 24.1853V25.5134C25.3657 26.6437 24.1482 27.1536 22.8571 27.6943Z" fill="white"/>
<mask id="mask0_4_918" style="mask-type:alpha" maskUnits="userSpaceOnUse" x="2" y="7" width="36" height="26">
<path fill-rule="evenodd" clip-rule="evenodd" d="M19.5235 25.9627C19.9272 26.063 20.3439 26.1665 20.7572 26.2958C18.8217 27.2115 16.5001 28.8042 16.5001 32.5H2.5C2.5 27.2368 5.29226 26.5443 7.64363 25.9611C9.01526 25.621 10.2369 25.318 10.6667 24.1667V22.0833C10.1417 21.851 8.64019 20.2552 8.48269 19.0073C8.06969 18.9792 7.42102 18.6406 7.22969 17.3042C7.12702 16.5875 7.53535 16.1833 7.78269 16.0563C6.50635 11.5344 7.15619 7.59792 13.5157 7.5C15.1059 7.5 16.3286 7.85729 16.8057 8.5625C18.5896 8.71979 19.4214 9.91146 19.7399 11.326C18.8482 13.3836 18.8492 15.9993 18.8497 17.3314C18.8497 17.3622 18.8497 17.3924 18.8497 17.4219C18.8497 17.6594 18.7774 18.7135 18.6841 19.0083C18.5254 20.2552 17.0251 21.851 16.5001 22.0833V24.1667C16.93 25.3183 18.1518 25.6219 19.5235 25.9627ZM22.8571 27.6943C20.9274 28.5024 18.8333 29.3793 18.8333 32.4999H37.5C37.5 29.3793 35.406 28.5024 33.4762 27.6943C32.1852 27.1536 30.9677 26.6437 30.5 25.5134V24.1718C34.7455 24.1718 35.7302 22.6718 35.7302 22.6718C34.9364 22.09 34.8704 20.3203 34.792 18.2213C34.6358 14.0362 34.4308 8.54156 28.3113 8.54156C27 8.54156 25.985 9.58323 25.985 9.58323C21.1158 9.58323 21.1533 14.3722 21.1833 18.1907C21.1996 20.2661 21.2136 22.0548 20.4363 22.6322C20.4363 22.6322 21.6088 24.1853 25.8333 24.1853V25.5134C25.3657 26.6437 24.1482 27.1536 22.8571 27.6943Z" fill="white"/>
</mask>
<g mask="url(#mask0_4_918)">
</g>
</svg>
