<svg width="16" height="16" viewBox="0 0 16 16" fill="none" xmlns="http://www.w3.org/2000/svg">
<path d="M8.13139 4.08152C8.1202 4.05719 8.10227 4.03658 8.07973 4.02213C8.05718 4.00768 8.03097 4 8.00419 4C7.97741 4 7.9512 4.00768 7.92865 4.02213C7.9061 4.03658 7.88818 4.05719 7.87699 4.08152L7.30419 5.32392C7.29413 5.34556 7.27871 5.36426 7.25939 5.37827C7.24006 5.39227 7.21748 5.4011 7.19379 5.40392L5.83459 5.56552C5.80809 5.56873 5.78305 5.57945 5.76244 5.59642C5.74183 5.61339 5.7265 5.6359 5.71826 5.66129C5.71002 5.68668 5.70921 5.7139 5.71593 5.73974C5.72265 5.76558 5.73662 5.78896 5.75619 5.80712L6.76099 6.73592C6.77865 6.75219 6.79182 6.77274 6.79925 6.79557C6.80667 6.81841 6.8081 6.84277 6.80339 6.86632L6.53619 8.20792C6.51299 8.32552 6.63779 8.41592 6.74179 8.35752L7.93619 7.68952C7.95699 7.67796 7.98039 7.67189 8.00419 7.67189C8.02799 7.67189 8.05139 7.67796 8.07219 7.68952L9.26659 8.35752C9.37059 8.41592 9.49539 8.32552 9.47219 8.20792L9.20579 6.86632C9.20108 6.84277 9.20251 6.81841 9.20993 6.79557C9.21736 6.77274 9.23053 6.75219 9.24819 6.73592L10.2522 5.80712C10.2718 5.78896 10.2857 5.76558 10.2924 5.73974C10.2992 5.7139 10.2984 5.68668 10.2901 5.66129C10.2819 5.6359 10.2665 5.61339 10.2459 5.59642C10.2253 5.57945 10.2003 5.56873 10.1738 5.56552L8.81539 5.40392C8.79155 5.40123 8.76881 5.39246 8.74934 5.37845C8.72986 5.36444 8.71432 5.34566 8.70419 5.32392L8.13139 4.08152Z" fill="black"/>
<path d="M12.8002 6.39996C12.8009 7.07541 12.6588 7.74337 12.383 8.35996C12.1072 8.97656 11.7041 9.52783 11.2002 9.97756V14C11.2002 14.07 11.1818 14.1388 11.1468 14.1995C11.1118 14.2602 11.0615 14.3107 11.0009 14.3458C10.9404 14.381 10.8716 14.3996 10.8015 14.3998C10.7315 14.4001 10.6626 14.3819 10.6018 14.3472L8.0002 12.8608L5.3986 14.3472C5.33777 14.3819 5.26889 14.4001 5.19884 14.3998C5.1288 14.3996 5.06004 14.381 4.99945 14.3458C4.93887 14.3107 4.88857 14.2602 4.8536 14.1995C4.81864 14.1388 4.80022 14.07 4.8002 14V9.97756C4.20341 9.44378 3.74963 8.76919 3.48017 8.01521C3.21072 7.26124 3.13415 6.45184 3.25745 5.66072C3.38074 4.86959 3.69998 4.12187 4.18609 3.48565C4.6722 2.84943 5.30974 2.34492 6.04065 2.01805C6.77157 1.69119 7.57264 1.55235 8.37093 1.61419C9.16921 1.67603 9.93934 1.93658 10.6112 2.37212C11.2831 2.80765 11.8353 3.40433 12.2176 4.10783C12.5999 4.81133 12.8002 5.59929 12.8002 6.39996ZM8.0002 11.2C7.15755 11.2012 6.32956 10.9796 5.6002 10.5576V13.3112L7.8018 12.0528C7.86222 12.0182 7.93061 12.0001 8.0002 12.0001C8.06979 12.0001 8.13817 12.0182 8.1986 12.0528L10.4002 13.312V10.5584C9.67077 10.9801 8.84278 11.2015 8.0002 11.2ZM8.0002 10.4C9.06106 10.4 10.0785 9.97854 10.8286 9.22839C11.5788 8.47824 12.0002 7.46083 12.0002 6.39996C12.0002 5.3391 11.5788 4.32168 10.8286 3.57154C10.0785 2.82139 9.06106 2.39996 8.0002 2.39996C6.93933 2.39996 5.92191 2.82139 5.17177 3.57154C4.42162 4.32168 4.0002 5.3391 4.0002 6.39996C4.0002 7.46083 4.42162 8.47824 5.17177 9.22839C5.92191 9.97854 6.93933 10.4 8.0002 10.4Z" fill="black"/>
</svg>
