<svg width="16" height="16" viewBox="0 0 16 16" fill="none" xmlns="http://www.w3.org/2000/svg">
<path fill-rule="evenodd" clip-rule="evenodd" d="M5.86909 6.01145L5.86909 6.01142L5.8691 6.0114C5.92173 5.28704 5.97431 4.56335 5.99535 3.8364C5.99907 3.80899 6.01258 3.78385 6.03338 3.76565C6.05419 3.74745 6.08087 3.73743 6.10849 3.73743C6.13612 3.73743 6.1628 3.74745 6.1836 3.76565C6.20441 3.78385 6.21792 3.80899 6.22164 3.8364C6.24112 4.62174 6.29742 5.40327 6.3538 6.18596L6.3538 6.18598L6.35381 6.18614L6.35382 6.18631C6.36953 6.40438 6.38525 6.62255 6.40017 6.84091C6.44753 7.53361 6.48298 8.22135 6.5031 8.91304C6.772 8.6685 7.04787 8.43166 7.33037 8.20282C7.46276 8.09452 7.59569 7.98744 7.72847 7.88047L7.72849 7.88045C8.11832 7.56639 8.5069 7.25334 8.877 6.91368V6.90953C8.8982 6.88829 8.92695 6.87637 8.95693 6.87637C8.98691 6.87637 9.01565 6.88829 9.03685 6.90953C9.05805 6.93076 9.06996 6.95955 9.06996 6.98958C9.06996 7.0196 9.05805 7.0484 9.03685 7.06963C8.70494 7.42854 8.38861 7.82179 8.08492 8.19932L8.08487 8.19937C7.9593 8.35548 7.83589 8.5089 7.71443 8.65609C7.49829 8.91804 7.27876 9.17435 7.05293 9.4262C7.75117 9.44134 8.448 9.47457 9.14483 9.52095C9.40749 9.53844 9.67001 9.55736 9.93253 9.57628L9.93257 9.57628L9.93261 9.57628C10.6681 9.62929 11.4037 9.6823 12.1426 9.70373C12.1729 9.70373 12.2019 9.71576 12.2233 9.73718C12.2447 9.75861 12.2568 9.78766 12.2568 9.81796C12.2568 9.84826 12.2447 9.87731 12.2233 9.89874C12.2019 9.92016 12.1729 9.93219 12.1426 9.93219C11.395 9.95078 10.6531 10.004 9.90844 10.0574L9.90843 10.0574C9.65434 10.0757 9.39992 10.0939 9.14483 10.1108C8.44736 10.157 7.75592 10.1922 7.06072 10.2121C7.30601 10.4843 7.54342 10.7617 7.77465 11.041C7.91205 11.2069 8.04793 11.3762 8.18433 11.5461C8.46834 11.8998 8.75464 12.2564 9.06177 12.5921L9.07008 12.59C9.08838 12.612 9.09775 12.6401 9.09636 12.6688C9.09496 12.6974 9.08289 12.7244 9.06253 12.7446C9.04217 12.7647 9.01501 12.7764 8.98642 12.7775C8.95783 12.7785 8.9299 12.7687 8.90815 12.7501C8.56077 12.4265 8.17894 12.1187 7.81079 11.822C7.6443 11.6877 7.4806 11.5558 7.32415 11.4256C7.04272 11.1915 6.7678 10.9548 6.49794 10.7107C6.48382 10.9752 6.46486 11.2392 6.4459 11.503V11.503V11.503C6.41372 11.951 6.38156 12.3986 6.37319 12.8479L6.36408 13.3425L6.36407 13.3428C6.34875 14.1795 6.33345 15.0152 6.31091 15.8524C6.31091 15.8915 6.29538 15.9291 6.26773 15.9567C6.24009 15.9844 6.2026 16 6.16351 16C6.12442 16 6.08693 15.9844 6.05928 15.9567C6.03164 15.9291 6.01611 15.8915 6.01611 15.8524C5.96629 14.8502 5.92892 13.8521 5.89363 12.8479C5.87826 12.4105 5.84084 11.9728 5.8035 11.5359L5.8035 11.5359C5.78068 11.2689 5.75789 11.0022 5.74016 10.7362C5.71126 10.7603 5.68219 10.7843 5.65296 10.8081C5.56637 10.8786 5.47788 10.947 5.38933 11.0154C5.21675 11.1487 5.04399 11.2821 4.88483 11.4319L4.5922 11.7066C4.20227 12.0728 3.81234 12.4391 3.41709 12.8C3.38884 12.8236 3.35279 12.8358 3.31604 12.8341C3.27928 12.8325 3.24448 12.8171 3.21846 12.791C3.19245 12.765 3.1771 12.7301 3.17544 12.6933C3.17378 12.6565 3.18593 12.6204 3.20949 12.5921C3.54026 12.212 3.87774 11.8374 4.21536 11.4628L4.21544 11.4627C4.33763 11.3271 4.45983 11.1915 4.58173 11.0555C4.70898 10.9123 4.82137 10.7578 4.93419 10.6026L4.93419 10.6026C5.01463 10.492 5.09529 10.3811 5.1817 10.2737C5.20044 10.2505 5.21929 10.2274 5.23826 10.2044C4.98712 10.1905 4.73645 10.1724 4.48599 10.1544L4.48597 10.1544C4.03887 10.1222 3.59243 10.0901 3.14516 10.0817L2.63968 10.0724L2.63958 10.0724C1.80901 10.0571 0.977485 10.0419 0.147398 10.0194C0.108306 10.0194 0.0708154 10.0039 0.0431731 9.97623C0.0155309 9.94858 0 9.91107 0 9.87196C0 9.83285 0.0155309 9.79534 0.0431731 9.76769C0.0708154 9.74003 0.108306 9.7245 0.147398 9.7245C1.14596 9.67465 2.14037 9.63726 3.14516 9.60195C3.58355 9.58655 4.01956 9.5498 4.4551 9.51308H4.45511H4.45511L4.45512 9.51308C4.72006 9.49075 4.98482 9.46843 5.24984 9.45094C5.22486 9.42111 5.20007 9.39111 5.17548 9.36095C5.105 9.27412 5.03643 9.18538 4.96783 9.09659C4.83437 8.92385 4.70077 8.75093 4.55268 8.59162C4.09388 8.103 3.63716 7.61646 3.18459 7.1216C3.16103 7.0933 3.14888 7.0572 3.15054 7.02039C3.1522 6.98358 3.16755 6.94872 3.19356 6.92266C3.21958 6.89661 3.25438 6.88124 3.29113 6.87957C3.32789 6.87791 3.36393 6.89007 3.39219 6.91367C3.73561 7.21481 4.07446 7.52054 4.41298 7.82597C4.584 7.98028 4.75495 8.13452 4.92636 8.28805C5.07116 8.41833 5.22756 8.53262 5.38442 8.64725C5.49294 8.72655 5.60167 8.80601 5.70694 8.89104C5.71052 8.89393 5.7141 8.89682 5.71768 8.89971C5.73325 8.21506 5.76511 7.52701 5.81059 6.84091C5.82893 6.56418 5.84902 6.28778 5.86909 6.01146V6.01146V6.01145Z" fill="white"/>
<path fill-rule="evenodd" clip-rule="evenodd" d="M12.0473 1.67244V1.67244V1.67243C12.0977 1.15328 12.1481 0.633746 12.1704 0.111462V0.102173C12.1704 0.0750754 12.1812 0.0490874 12.2003 0.0299263C12.2194 0.0107652 12.2454 0 12.2724 0C12.2995 0 12.3254 0.0107652 12.3446 0.0299263C12.3637 0.0490874 12.3745 0.0750754 12.3745 0.102173C12.3947 0.653283 12.4484 1.20057 12.5022 1.74785L12.5022 1.74786L12.5022 1.74789C12.5417 2.14962 12.5812 2.55135 12.6074 2.95458C12.7233 2.85908 12.8418 2.7665 12.9625 2.67692C13.0565 2.60655 13.1515 2.53791 13.2464 2.46935L13.2464 2.46932L13.2464 2.46931C13.4771 2.30261 13.7072 2.13639 13.9214 1.94685L13.9195 1.93756C13.939 1.92094 13.9639 1.91222 13.9895 1.91314C14.015 1.91407 14.0393 1.92456 14.0575 1.94254C14.0757 1.96052 14.0864 1.98469 14.0877 2.01026C14.0889 2.03582 14.0806 2.06093 14.0642 2.08061C13.8601 2.30826 13.6839 2.55291 13.5071 2.79842L13.507 2.79844C13.4429 2.8875 13.3787 2.97667 13.313 3.06518C13.232 3.17534 13.1484 3.2836 13.0624 3.38987C13.4924 3.41574 13.9213 3.45778 14.3504 3.49985C14.8696 3.55075 15.3892 3.60168 15.9116 3.62405C15.936 3.62738 15.9585 3.63945 15.9747 3.65805C15.9909 3.67664 15.9999 3.7005 15.9999 3.72519C15.9999 3.74988 15.9909 3.77373 15.9747 3.79233C15.9585 3.81092 15.936 3.823 15.9116 3.82632C15.3625 3.84732 14.8172 3.90102 14.2719 3.95471L14.2719 3.95471C13.8724 3.99406 13.4729 4.0334 13.0719 4.05988C13.1676 4.17672 13.2604 4.29599 13.3502 4.41759C13.4257 4.51805 13.4989 4.6194 13.5719 4.72054C13.7339 4.94482 13.8951 5.16804 14.0792 5.37801L14.0884 5.36873C14.1074 5.38769 14.118 5.41342 14.118 5.44025C14.118 5.46707 14.1074 5.4928 14.0884 5.51177C14.0695 5.53074 14.0438 5.54139 14.017 5.54139C13.9902 5.54139 13.9645 5.53074 13.9456 5.51177C13.7328 5.32798 13.5051 5.16348 13.2757 4.99779C13.1713 4.92232 13.0665 4.8466 12.9626 4.76869C12.8444 4.68124 12.7284 4.59097 12.6147 4.49795C12.6105 4.55232 12.6059 4.60665 12.6007 4.66093C12.5897 4.76983 12.5744 4.87794 12.5592 4.98596C12.5337 5.16725 12.5083 5.34826 12.5024 5.53219C12.4973 5.68542 12.4925 5.83866 12.4876 5.99189C12.473 6.45169 12.4584 6.9115 12.4375 7.3713C12.4375 7.40628 12.4236 7.43983 12.399 7.46456C12.3743 7.4893 12.3408 7.50319 12.3058 7.50319C12.2709 7.50319 12.2374 7.4893 12.2127 7.46456C12.188 7.43983 12.1741 7.40628 12.1741 7.3713C12.1315 6.75826 12.1018 6.14523 12.0721 5.53219C12.0629 5.34043 12.0336 5.15082 12.0043 4.96114L12.0043 4.96114C11.9864 4.84579 11.9686 4.7304 11.9553 4.61449C11.9508 4.5709 11.9466 4.52727 11.9428 4.48361C11.9159 4.50158 11.889 4.51919 11.8621 4.53676C11.7602 4.60328 11.6592 4.6692 11.5677 4.75196L11.5556 4.76293C11.2646 5.02683 10.9719 5.29239 10.6755 5.54891C10.6503 5.56999 10.6181 5.58086 10.5852 5.57937C10.5524 5.57789 10.5213 5.56416 10.498 5.54088C10.4748 5.5176 10.4611 5.48645 10.4596 5.45357C10.4581 5.42068 10.469 5.38842 10.49 5.36314C10.6246 5.20447 10.7621 5.0463 10.9003 4.88735L10.9003 4.88735L10.9003 4.88727C11.0307 4.73732 11.1617 4.58668 11.2913 4.4343C11.3671 4.34448 11.4288 4.24544 11.4904 4.14637C11.5068 4.12015 11.5231 4.09392 11.5397 4.06786C11.4834 4.06341 11.4272 4.05836 11.371 4.05271C11.2641 4.04187 11.1582 4.02585 11.0525 4.00987C10.8685 3.98205 10.6854 3.95436 10.4993 3.95436L10.4992 3.95436C9.88717 3.9358 9.27511 3.91725 8.66489 3.88941C8.62997 3.88941 8.59647 3.87553 8.57178 3.85082C8.54708 3.82611 8.5332 3.7926 8.5332 3.75766C8.5332 3.72272 8.54708 3.68921 8.57178 3.6645C8.59647 3.63979 8.62997 3.62591 8.66489 3.62591C9.27512 3.58509 9.8872 3.55354 10.4993 3.52385C10.6867 3.51481 10.872 3.48654 11.0573 3.45826L11.0573 3.45826L11.0573 3.45826C11.1765 3.44007 11.2958 3.42187 11.4156 3.4088C11.4588 3.40423 11.5022 3.40001 11.5455 3.39614C11.5271 3.36866 11.509 3.34105 11.491 3.31348C11.4254 3.21301 11.3601 3.11313 11.2784 3.02247C11.2464 2.98681 11.2143 2.95117 11.1823 2.91554C10.9473 2.65425 10.7128 2.39354 10.4827 2.12706C10.4616 2.10178 10.4508 2.06953 10.4523 2.03664C10.4538 2.00375 10.4675 1.97261 10.4907 1.94933C10.514 1.92605 10.5451 1.91232 10.5779 1.91083C10.6107 1.90934 10.6429 1.92021 10.6682 1.9413C10.8421 2.08729 11.0148 2.23796 11.1879 2.38905C11.3233 2.50711 11.4589 2.62543 11.5956 2.74196C11.6857 2.81824 11.7851 2.88085 11.8845 2.94345C11.9021 2.95454 11.9197 2.96564 11.9373 2.97682C11.9629 2.54137 12.0051 2.10704 12.0473 1.67244V1.67244Z" fill="white"/>
</svg>
