<svg width="24" height="24" viewBox="0 0 24 24" fill="none" xmlns="http://www.w3.org/2000/svg">
<path d="M3.32344 8.50781C3.32344 6.58594 4.49531 4.92188 6.16406 4.21875H5.80313C3.87656 4.21875 2.28281 5.75625 2.00156 7.74375C1.72031 7.79063 1.5 8.11406 1.5 8.49844C1.5 8.90156 1.73906 9.22031 2.04375 9.24375C2.38125 10.95 3.68906 12.3281 5.31094 12.4688H5.31563C5.38125 12.4688 5.44687 12.4969 5.5125 12.5109C5.56406 12.5203 5.61562 12.5297 5.66719 12.5438C4.26562 11.7422 3.32344 10.2375 3.32344 8.50781Z" fill="black"/>
<path d="M21.8018 4.26562C21.7502 4.12969 21.6939 4.00312 21.6377 3.87656C21.333 3.20156 20.9627 2.65781 20.5408 2.25469C20.0158 1.7625 19.4111 1.5 18.7877 1.5C18.3986 1.5 18.0189 1.60313 17.658 1.8H17.6533C17.5971 1.83281 17.5408 1.86094 17.4846 1.89375C15.1877 3.25313 12.6049 4.05938 9.8627 4.20938C9.55801 4.22813 9.25332 4.21875 8.94863 4.21875H6.96582C5.37207 4.92188 4.2002 6.58594 4.2002 8.50781C4.2002 10.2328 5.1002 11.7469 6.44082 12.5438C7.0502 13.0547 8.39551 13.0922 8.31582 13.6641C8.22676 14.2828 8.05801 14.6906 7.9502 15.1031C7.88926 15.3281 6.84395 18.5203 6.76426 21.8859C6.76426 21.9797 6.76426 22.0594 6.77363 22.1953C6.78301 22.3312 6.87676 22.4953 7.17207 22.4953H10.7721C11.0814 22.4953 11.2268 22.3406 11.208 22.0594C11.1986 21.9703 11.1799 21.8578 11.1705 21.7547C11.058 20.6719 10.9549 19.4203 11.0158 17.9297C11.0768 16.3359 11.2596 15.4969 11.3439 15.0563C11.4424 14.5688 11.7002 14.0062 11.9111 13.6359C13.3549 13.6781 16.2658 14.5406 17.3064 14.9906C17.3064 14.9906 17.6439 15.15 17.7799 15.2344C18.108 15.3938 18.4455 15.4734 18.7924 15.4734C18.8346 15.4734 18.8768 15.4734 18.9189 15.4688C19.4955 15.4359 20.0533 15.0141 20.5455 14.5547C20.9721 14.1562 21.3377 13.6078 21.6424 12.9328C21.6986 12.8016 21.7549 12.6703 21.8064 12.5297C22.2564 11.3578 22.5002 9.90938 22.5002 8.4C22.5002 6.89062 22.2564 5.4375 21.8018 4.26562ZM20.7189 12.5391C20.3533 13.4062 19.8658 14.1 19.3361 14.1C18.8064 14.1 18.3236 13.4109 17.958 12.5391C17.5314 11.5266 17.2596 10.05 17.2596 8.40937C17.2596 6.75937 17.5314 5.27813 17.9627 4.26562C18.3283 3.40313 18.8111 2.88281 19.3361 2.88281C19.8658 2.88281 20.3439 3.40781 20.7143 4.26562C21.1455 5.27813 21.4174 6.75937 21.4174 8.40937C21.4174 10.05 21.1455 11.5266 20.7189 12.5391Z" fill="black"/>
</svg>
