<svg width="40" height="40" viewBox="0 0 40 40" fill="none" xmlns="http://www.w3.org/2000/svg">
<path fill-rule="evenodd" clip-rule="evenodd" d="M17.7559 4.93144L15.3455 7.33976C15.1508 7.53448 14.887 7.64416 14.6117 7.6448H10.8189C9.06548 7.6448 7.6448 9.06548 7.6448 10.8189V14.6117C7.6448 14.889 7.53388 15.1514 7.33976 15.3476L4.92931 17.7559C4.33427 18.3512 4 19.1584 4 20C4 20.8416 4.33427 21.6488 4.92931 22.2441L7.33976 24.6545C7.53448 24.8492 7.64416 25.113 7.6448 25.3883V29.1811C7.6448 30.9345 9.06548 32.3552 10.8189 32.3552H14.6117C14.889 32.3552 15.1514 32.4661 15.3476 32.6602L17.7559 35.0707C18.3512 35.6657 19.1584 36 20 36C20.8416 36 21.6488 35.6657 22.2441 35.0707L24.6545 32.6602C24.8492 32.4655 25.113 32.3558 25.3883 32.3552H29.1811C30.9345 32.3552 32.3552 30.9345 32.3552 29.1811V25.3883C32.3552 25.111 32.4661 24.8486 32.6602 24.6524L35.0707 22.2441C35.6657 21.6488 36 20.8416 36 20C36 19.1584 35.6657 18.3512 35.0707 17.7559L32.6602 15.3455C32.4655 15.1508 32.3558 14.887 32.3552 14.6117V10.8189C32.3552 9.06548 30.9345 7.6448 29.1811 7.6448H25.3883C25.1123 7.64473 24.8476 7.535 24.6524 7.33976L22.2441 4.92931C21.6488 4.33427 20.8416 4 20 4C19.1584 4 18.3512 4.33427 17.7559 4.92931V4.93144ZM13.912 24.5777L24.5777 13.912L26.088 15.4223L15.4223 26.088L13.912 24.5777ZM14.6671 14.6671V16.8003H16.8003V14.6671H14.6671ZM23.1997 25.3329H25.3329V23.1997H23.1997V25.3329Z" fill="black"/>
</svg>
