<svg width="40" height="40" viewBox="0 0 40 40" fill="none" xmlns="http://www.w3.org/2000/svg">
<path d="M5 10.625C5 8.90625 6.40625 7.5 8.125 7.5H31.5625C31.9769 7.5 32.3743 7.66462 32.6674 7.95765C32.9604 8.25067 33.125 8.6481 33.125 9.0625V10.625H8.125V12.1875H34.6875C35.1019 12.1875 35.4993 12.3521 35.7924 12.6451C36.0854 12.9382 36.25 13.3356 36.25 13.75V29.375C36.25 30.2038 35.9208 30.9987 35.3347 31.5847C34.7487 32.1708 33.9538 32.5 33.125 32.5H8.125C7.2962 32.5 6.50134 32.1708 5.91529 31.5847C5.32924 30.9987 5 30.2038 5 29.375V10.625ZM30.7812 24.6875C31.4029 24.6875 31.999 24.4406 32.4385 24.001C32.8781 23.5615 33.125 22.9654 33.125 22.3438C33.125 21.7221 32.8781 21.126 32.4385 20.6865C31.999 20.2469 31.4029 20 30.7812 20C30.1596 20 29.5635 20.2469 29.124 20.6865C28.6844 21.126 28.4375 21.7221 28.4375 22.3438C28.4375 22.9654 28.6844 23.5615 29.124 24.001C29.5635 24.4406 30.1596 24.6875 30.7812 24.6875Z" fill="black"/>
</svg>
