<svg width="27" height="47" viewBox="0 0 27 47" fill="none" xmlns="http://www.w3.org/2000/svg">
<path d="M13.4036 0.00427246C15.8482 0.00427246 26.7652 0.252185 26.8544 14.3521C26.8544 32.6646 13.4036 46.1743 13.4036 46.1743C13.4036 46.1743 0 29.1386 0 14.7877C0 0.436865 10.9591 0.00427246 13.4036 0.00427246Z" fill="#FC7C35"/>
<path d="M13.4036 0.00430918C16.4046 -0.0685784 19.3553 0.784698 21.8551 2.4483C6.07315 9.47818 13.4036 46.1742 13.4036 46.1742C13.4036 46.1742 0 29.1385 0 14.7877C0 0.436901 10.9591 0.00430918 13.4036 0.00430918Z" fill="#CF5612"/>
<path d="M13.4028 19.9688C16.3859 19.9688 18.8042 17.548 18.8042 14.5618C18.8042 11.5757 16.3859 9.15491 13.4028 9.15491C10.4197 9.15491 8.00146 11.5757 8.00146 14.5618C8.00146 17.548 10.4197 19.9688 13.4028 19.9688Z" fill="white"/>
<path d="M13.4029 9.15491C7.8982 12.2553 9.37513 17.3541 13.4029 19.9698C11.9702 19.9698 10.5962 19.4 9.58315 18.386C8.5701 17.3719 8.00098 15.9965 8.00098 14.5623C8.00098 13.1282 8.5701 11.7528 9.58315 10.7387C10.5962 9.72462 11.9702 9.15491 13.4029 9.15491V9.15491Z" fill="#D1D1CC"/>
<path d="M12.9877 20.3853C14.3102 20.3853 15.5784 20.9111 16.5136 21.8472C17.4487 22.7833 17.974 24.0528 17.974 25.3766C17.974 28.1328 15.0432 44.0945 13.2444 44.0945C11.4456 44.0945 8.00146 28.1328 8.00146 25.3766C8.00146 24.0528 8.5268 22.7833 9.46191 21.8472C10.397 20.9111 11.6653 20.3853 12.9877 20.3853Z" fill="white"/>
<path d="M12.9877 20.3853C8.30226 22.8102 8.66323 29.9997 13.2444 44.0945C11.4456 44.0945 8.00146 28.1328 8.00146 25.3766C8.00146 24.0528 8.5268 22.7833 9.46191 21.8472C10.397 20.9111 11.6653 20.3853 12.9877 20.3853Z" fill="#D1D1CC"/>
</svg>
