<svg width="246" height="254" viewBox="0 0 246 254" fill="none" xmlns="http://www.w3.org/2000/svg">
<path d="M172.272 137.791C181.559 100.46 158.825 62.6695 121.494 53.3827C84.1637 44.096 46.373 66.8299 37.0862 104.16C27.7994 141.491 50.5333 179.282 87.8638 188.568C125.194 197.855 162.985 175.121 172.272 137.791Z" fill="#FFAF00"/>
<path d="M115.792 52.1341C152.802 61.3412 175.341 98.8078 166.134 135.818C156.927 172.828 119.46 195.367 82.4497 186.16C45.4393 176.953 22.9004 139.487 32.1075 102.476C41.3147 65.4659 78.7813 42.9269 115.792 52.1341Z" stroke="#595959" stroke-width="1.19471"/>
<path d="M102.5 62.7384C92.666 62.6205 84.7985 68.3792 80.4806 72.3089C76.2736 73.2964 73.7927 75.0965 72.3515 76.4689C64.9557 83.5161 67.4298 96.0214 69.5603 106.793C70.497 111.526 71.1361 114.625 72.4268 117.048C78.3723 122.156 87.1776 121.486 91.3817 121.158C102.922 120.26 110.989 114.169 114.472 111.139C116.176 111.173 118.564 111.118 121.376 110.713C123.732 110.373 132.569 109.1 135.201 106.031C139.04 101.555 135.076 86.9591 126.259 75.2373C119.962 68.1735 111.788 62.8498 102.5 62.7384Z" fill="#333333"/>
<path d="M83.3101 73.4497C84.1622 74.0508 85.1141 74.8075 86.077 75.7467C87.1727 76.8143 88.0139 77.8553 88.6532 78.7605" stroke="black" stroke-width="0.461989" stroke-miterlimit="10" stroke-linecap="round"/>
<path d="M109.555 104.354L96.6214 106.104C96.6214 106.104 100.771 116.675 95.8475 123.713C92.7362 128.16 87.2661 128.746 83.276 133.356C79.3691 137.868 78.9242 143.187 78.5685 147.066C77.2394 161.525 84.3635 171.457 90.519 186.847C93.3951 194.037 102.963 156.055 105.159 170.592C113.775 168.431 108.333 176.435 116.949 174.275C119.843 161.797 129.357 190.211 130.009 182.746C132.464 154.607 126.938 153.087 130.874 138.301C131.563 135.707 132.774 131.845 130.768 128.648C127.386 123.261 118.605 126.018 113.266 120.775C110.813 118.363 108.41 113.811 109.555 104.354Z" fill="#EAB9B5"/>
<path d="M198.611 175.612C199.304 172.39 181.871 166.619 173.116 164.228C173.116 164.228 158.487 160.233 146.09 163.97C145.506 164.145 143.998 164.659 143.218 165.969C142.972 166.381 142.861 166.89 142.863 167.609C142.872 170.372 155.636 171.624 168.831 174.6C177.22 176.492 180.753 177.926 187.833 177.802C190.878 177.749 198.179 177.623 198.611 175.612Z" fill="#EAB9B5"/>
<path d="M197.049 171.122C199.363 171.558 203.275 172.512 206.341 173.243C207.526 173.525 208.914 174.173 209.84 174.78C211.522 175.882 213.197 176.758 216.078 178.646C217.402 179.513 218.83 180.859 219.836 181.882C219.836 181.882 220.268 182.307 220.555 182.599C220.669 182.715 220.915 183.007 221.058 183.181C221.13 183.26 221.169 183.305 221.169 183.305C221.169 183.305 221.166 183.308 221.165 183.308C221.166 183.31 221.171 183.315 221.171 183.315C221.171 183.315 221.161 183.317 221.151 183.319C220.993 183.438 219.762 184.286 218.273 183.062C217.766 182.647 216.734 182.014 215.486 181.342C215.669 181.922 215.811 182.496 215.82 182.909C215.836 183.547 215.79 184.838 215.744 185.924C215.744 185.924 215.726 186.493 215.712 186.934C215.705 187.167 215.658 187.734 215.658 187.734C215.658 187.734 214.924 188.186 214.41 186.725C214.134 185.94 213.9 184.542 213.741 183.416C213.542 184.297 213.326 185.288 213.23 185.847C213.18 186.141 213.13 186.376 213.083 186.563C213.044 186.739 212.998 186.881 212.957 186.992C212.915 187.111 212.88 187.18 212.86 187.217C212.848 187.239 212.841 187.253 212.841 187.253L212.838 187.25C212.837 187.251 212.837 187.253 212.837 187.253C212.837 187.253 211.605 186.693 211.795 185.256C211.986 183.82 212.041 181.306 212.041 181.306L212.003 181.25C211.664 182.133 211.103 183.616 210.832 184.435C210.817 184.487 210.688 184.923 210.546 185.282C210.475 185.462 210.402 185.603 210.341 185.708C210.25 185.878 210.199 185.927 210.199 185.927L210.198 185.925L210.197 185.927L210.195 185.924C210.16 185.902 209.06 185.188 209.443 183.812C209.831 182.414 210.234 179.931 210.234 179.931L209.623 178.695C208.826 178.424 208.127 178.244 207.619 178.208C207.217 178.18 206.06 178.988 206.06 178.988C206.06 178.988 207.754 182.319 208.428 183.668C209.824 186.463 208.667 187.166 208.236 187.443C207.227 188.09 206.786 185.761 206.164 184.878C205.183 183.487 203.754 182.066 199.46 180.537C197.913 179.985 196 177.606 194.503 177.155C194.161 177.052 192.434 176.127 191.713 176.152L191.7 171.627C193.846 171.242 195.515 170.832 197.049 171.122Z" fill="#EAB9B5"/>
<path opacity="0.19" d="M109.312 106.306C109.861 108.199 109.661 110.181 108.524 111.153C106.87 112.567 102.959 112.078 100.467 108.694C103.414 107.898 106.363 107.103 109.312 106.306Z" fill="#FC5B41"/>
<path d="M87.0688 78.0224C85.5632 79.6685 84.8317 81.193 84.4406 82.3049C83.3878 85.3033 83.4973 89.0599 83.4973 89.0599C83.4973 89.0599 78.5255 88.5388 79.8572 92.7414C82.3942 100.745 86.3272 97.7382 86.3272 97.7382C86.3272 97.7382 95.7018 112.282 106.343 108.119C115.414 104.57 113.821 90.4036 113.821 90.4036C113.144 86.6816 112.467 82.9607 111.79 79.2387C108.196 79.51 104.119 79.622 99.6489 79.4134C94.97 79.1967 90.7479 78.669 87.0688 78.0224Z" fill="#EAB9B5"/>
<path d="M107.654 98.8919C106.491 98.2322 105.673 97.8167 105.216 98.2741C104.302 97.8167 103.265 99.5607 101.434 100.014C100.913 100.143 100.471 100.181 100.192 100.193C100.665 100.277 101.398 100.369 102.29 100.317C103.298 100.258 104.048 100.043 105.379 99.6517C105.945 99.4869 106.729 99.2394 107.654 98.8919Z" fill="#FC5B41"/>
<path opacity="0.19" d="M107.63 98.908C107.63 98.908 107.413 99.9826 106.587 100.425C104.884 101.335 101.956 101.438 100.702 100.425C100.612 100.352 100.54 100.287 100.493 100.241C100.877 100.258 101.472 100.266 102.192 100.195C102.978 100.117 103.545 99.9808 105.309 99.5213C106.228 99.2811 107.016 99.0718 107.63 98.908Z" fill="#FC5B41"/>
<path opacity="0.19" d="M96.5452 95.2559C95.9602 93.4115 93.9471 92.3769 92.0471 92.9452C90.1471 93.5134 89.081 95.4679 89.666 97.3123C90.2499 99.1567 92.2642 100.191 94.1642 99.623C96.0641 99.0547 97.1302 97.0992 96.5452 95.2559Z" fill="#FC5B41"/>
<path opacity="0.19" d="M114.919 90.2002C114.335 88.3558 112.321 87.3212 110.421 87.8895C108.521 88.4578 107.455 90.4122 108.04 92.2566C108.625 94.101 110.638 95.1356 112.538 94.5673C114.438 93.9991 115.504 92.0446 114.919 90.2002Z" fill="#FC5B41"/>
<path d="M96.0375 83.9736C96.0375 83.9736 94.9205 83.281 92.0344 83.942C88.576 84.7338 87.6035 86.3313 87.6035 86.3313" stroke="black" stroke-width="0.461989" stroke-miterlimit="10" stroke-linecap="round"/>
<path d="M112.035 81.0144C111.301 80.7069 109.391 80.02 107.007 80.4704C106.147 80.6328 103.059 81.1533 102.173 83.2516C102.138 83.3349 102.12 83.3951 102.098 83.4642C101.521 85.2541 102.149 87.2263 103.112 89.0893C104.892 92.5288 106.755 93.542 106.276 94.7943C106.046 95.3947 105.405 95.7184 104.939 95.8905" stroke="black" stroke-width="0.461989" stroke-miterlimit="10" stroke-linecap="round"/>
<path d="M96.7428 89.0923C96.7428 89.0923 95.8754 88.1932 93.7003 88.364C91.5308 88.5336 91.0555 90.1317 91.0555 90.1317C91.0555 90.1317 91.6047 90.9672 93.185 90.9143C95.4224 90.8385 96.7428 89.0923 96.7428 89.0923Z" fill="white"/>
<path d="M92.4149 88.7378C92.5747 88.6585 92.8249 88.6326 93.0231 88.575C93.513 88.7848 93.8808 89.2334 93.9151 89.7871C93.9495 90.3374 93.8568 90.6332 93.4022 90.9005C91.6713 91.1093 91.0506 90.1317 91.0506 90.1317C91.0506 90.1317 91.3659 89.2586 92.4149 88.7378Z" fill="#000FFF"/>
<path d="M93.2604 89.7811C93.2284 89.2657 92.7707 88.8753 92.2387 88.9076C91.7056 88.9399 91.3 89.3832 91.332 89.8985C91.364 90.4139 91.8217 90.8043 92.3537 90.772C92.8868 90.7387 93.2924 90.2953 93.2604 89.7811Z" fill="black"/>
<path d="M96.7285 89.0692C96.7285 89.0692 94.9916 87.6497 93.5109 87.8271C91.7417 88.0404 91.1742 89.0161 91.0334 89.394C90.8925 89.772 90.9669 90.1647 90.9669 90.1647C91.3053 89.8441 92.2295 89.0533 93.6964 88.7786C95.143 88.5083 96.2883 88.8955 96.7285 89.0692Z" fill="#FC5B41"/>
<path d="M110.708 85.5894C110.708 85.5894 109.84 84.6903 107.665 84.861C105.496 85.0307 105.021 86.6288 105.021 86.6288C105.021 86.6288 105.57 87.4643 107.15 87.4113C109.389 87.3345 110.708 85.5894 110.708 85.5894Z" fill="white"/>
<path d="M106.385 85.2329C106.545 85.1536 106.795 85.1277 106.993 85.0702C107.483 85.2799 107.851 85.7285 107.885 86.2822C107.92 86.8325 107.827 87.1283 107.373 87.3956C105.642 87.6044 105.02 86.6269 105.02 86.6269C105.02 86.6269 105.336 85.7537 106.385 85.2329Z" fill="#000FFF"/>
<path d="M107.226 86.2784C107.194 85.763 106.736 85.3727 106.204 85.4049C105.671 85.4372 105.265 85.8805 105.297 86.3959C105.329 86.9112 105.787 87.3016 106.319 87.2693C106.851 87.2371 107.258 86.7937 107.226 86.2784Z" fill="black"/>
<path d="M110.694 85.5663C110.694 85.5663 108.957 84.1467 107.476 84.3241C105.707 84.5374 105.14 85.5131 104.999 85.8911C104.857 86.2691 104.932 86.6617 104.932 86.6617C105.271 86.3411 106.195 85.5504 107.662 85.2756C109.109 85.0053 110.255 85.3925 110.694 85.5663Z" fill="#FC5B41"/>
<path d="M84.5576 92.5504C84.4648 92.4391 83.9184 91.8071 82.9758 91.7389C82.2012 91.6832 81.6465 92.0438 81.4947 92.1505" stroke="black" stroke-width="0.461989" stroke-miterlimit="10" stroke-linecap="round"/>
<path d="M83.4395 93.7435C83.3072 93.6093 83.1182 93.3811 82.9955 93.0543C82.7705 92.4575 82.9154 91.9274 82.9769 91.7389" stroke="black" stroke-width="0.461989" stroke-miterlimit="10" stroke-linecap="round"/>
<path d="M31.9561 214.597C32.879 215.234 34.725 212.483 44.1203 203.752C52.8096 195.678 53.6981 195.738 56.4303 192.283C62.5033 184.606 66.8562 173.256 64.567 171.138C61.9726 168.736 50.2772 177.682 42.5479 188.217C34.236 199.548 30.0786 213.303 31.9561 214.597Z" fill="#E0B0AD"/>
<path d="M22.4437 217.342C21.9019 218.231 21.4043 219.194 21.4043 219.194C21.066 219.891 20.3858 221.973 20.3858 221.973C20.3858 221.973 20.378 221.991 20.3634 222.023C20.2313 222.321 19.5642 223.881 19.8384 224.351C19.8486 224.367 19.8588 224.382 19.8712 224.397C20.4323 225.032 21.0715 224.314 21.1861 224.174C21.1771 224.191 21.1682 224.208 21.1603 224.222L21.1659 224.214C20.9079 224.645 19.4478 227.15 20.0954 227.685C20.1474 227.728 20.1994 227.763 20.2524 227.79C20.3055 227.817 20.3585 227.837 20.4127 227.85C20.4397 227.856 20.4668 227.862 20.4928 227.865C21.1006 227.942 21.7117 227.237 21.8947 227.005C21.8633 227.059 21.8409 227.096 21.8308 227.113C21.6143 227.45 21.1499 228.205 20.8387 228.946C20.6238 229.457 20.4811 229.962 20.543 230.316C20.5465 230.336 20.551 230.355 20.5556 230.374C20.5693 230.43 20.5898 230.482 20.617 230.529C20.6793 230.638 20.7765 230.72 20.9164 230.767C22.0425 231.137 23.3248 229.088 23.6242 228.578L23.6366 228.562C23.6299 228.574 23.6231 228.587 23.6164 228.602C23.6019 228.631 23.585 228.664 23.566 228.701C23.2657 229.304 22.5626 230.876 23.1713 231.258C23.2086 231.282 23.2504 231.3 23.2978 231.314C24.311 231.614 26.1345 228.881 26.1345 228.881C27.1548 227.802 27.4482 227.19 28.3229 226.419C28.9986 225.822 29.3699 224.859 29.6991 224.494C30.9046 223.156 31.2809 222.714 31.2809 222.714L31.2775 222.708C31.8926 222.571 32.5092 222.183 33.2521 221.447C34.0882 220.619 34.7562 220.075 35.2444 219.724C35.3077 219.791 35.371 219.858 35.4366 219.927L35.4411 219.931C35.3158 220.225 33.5834 224.401 35.7301 225.982C37.9558 227.621 36.5907 224.294 36.9242 223.491C37.2577 222.688 38.5853 220.728 38.239 219.189C38.2333 219.16 38.2253 219.134 38.2185 219.109C38.3267 218.736 38.374 218.342 38.3481 217.98C38.2456 216.541 37.7896 213.359 37.7896 213.359C37.6883 212.661 37.4937 212.073 37.2386 211.584C37.2826 211.238 37.5395 209.328 38.0184 208.526C38.5467 207.642 39.5282 206.054 39.5282 206.054C37.12 204.834 34.7118 203.615 32.3048 202.395C31.2767 204.246 30.2486 206.097 29.2205 207.948C29.198 207.951 29.1743 207.953 29.1518 207.957C27.349 208.239 23.8036 214.516 23.7778 214.56L23.3018 215.211C23.0493 215.57 22.886 216.395 22.886 216.395C22.4431 217.164 22.6556 216.976 22.4437 217.342ZM23.6893 228.465C23.6893 228.465 23.6747 228.492 23.6568 228.525L23.6422 228.547C23.668 228.502 23.6893 228.465 23.6893 228.465Z" fill="#E0B0AD"/>
<path fill-rule="evenodd" clip-rule="evenodd" d="M88.2881 129.359C95.0868 133.813 105.319 140.387 108.703 142.066C112.28 137.485 118.915 128.973 122.274 124.62C127.775 124.521 134.014 126.263 138.771 129.984C150.765 139.369 155.948 151.879 158.294 160.09C162.669 161.038 167.044 161.986 171.419 162.934C176.784 164.096 182.15 165.259 187.514 166.421C187.893 167.849 188.504 170.976 187.395 174.664C186.58 177.374 185.171 179.272 184.247 180.332C179.835 180.399 157.044 180.578 148.029 174.032C146.72 173.082 145.29 171.921 145.29 171.921C139.855 167.508 136.101 163.11 133.673 159.879C132.921 164.867 132.202 169.062 131.483 173.258C130.765 177.453 130.046 181.649 129.294 186.637C127.44 188.502 102.654 191.677 89.0063 188.619C87.3811 184.825 86.2716 181.829 85.1621 178.834C84.0527 175.838 82.9432 172.842 81.318 169.049C79.2935 171.692 77.2688 174.335 75.2441 176.978C73.2193 179.62 71.1946 182.263 69.1701 184.906L68.9375 185.109C60.0926 192.829 51.2477 200.548 42.4017 208.268C40.7998 207.89 38.5815 207.185 36.2066 205.805C34.1401 204.604 32.6097 203.273 31.5547 202.204L54.2377 172.483C60.2797 157.58 67.0622 146.695 72.1616 139.528C75.0919 135.41 79.1442 133.568 86.9219 130.034C87.1408 129.935 87.3627 129.834 87.5876 129.732C87.8084 129.631 88.0425 129.505 88.2881 129.359Z" fill="#0920E8"/>
<path d="M175.368 89.3695L150.683 92.0528L162.404 75.395L175.368 89.3695Z" fill="#FC5B41"/>
<path d="M130.196 69.124L175.369 89.3699L179.756 62.6243L130.196 69.124Z" fill="#D5D5D6"/>
<path d="M129.833 68.8131L238.248 63.9773L240.506 4.4414L132.091 10.0882L129.833 68.8131Z" fill="#FC5B41"/>
<path d="M141.56 32.5444C140.699 32.5729 139.916 32.4487 139.213 32.1716C138.516 31.8943 137.934 31.4849 137.469 30.9432C137.008 30.396 136.705 29.7397 136.56 28.9745L138.595 28.5957C138.793 29.2882 139.168 29.8165 139.721 30.1804C140.279 30.5442 140.913 30.7144 141.622 30.6909C142.042 30.677 142.435 30.5984 142.802 30.4552C143.169 30.3119 143.462 30.111 143.683 29.8525C143.909 29.5938 144.017 29.2816 144.004 28.9161C143.999 28.7525 143.967 28.6033 143.908 28.4688C143.848 28.3287 143.762 28.206 143.65 28.1005C143.542 27.9948 143.403 27.9011 143.231 27.8194C143.064 27.7321 142.87 27.6593 142.65 27.6011L139.576 26.8018C139.312 26.7341 139.025 26.6426 138.715 26.5273C138.411 26.4063 138.118 26.2385 137.838 26.0238C137.563 25.8036 137.333 25.5217 137.146 25.1784C136.966 24.8294 136.867 24.3957 136.849 23.8775C136.824 23.1191 136.994 22.4772 137.359 21.9518C137.729 21.4206 138.235 21.0161 138.875 20.7382C139.521 20.4601 140.243 20.3106 141.04 20.2896C141.847 20.2683 142.572 20.3836 143.214 20.6354C143.856 20.8817 144.398 21.2542 144.84 21.7529C145.283 22.2517 145.603 22.8609 145.802 23.5807L143.695 24.0192C143.594 23.6075 143.413 23.2612 143.152 22.9804C142.897 22.6939 142.587 22.4803 142.222 22.3395C141.862 22.1985 141.48 22.1292 141.076 22.1317C140.683 22.1392 140.32 22.2114 139.985 22.3481C139.657 22.4791 139.392 22.6626 139.193 22.8986C138.998 23.1345 138.906 23.4051 138.917 23.7106C138.926 23.9998 139.021 24.2342 139.202 24.4139C139.383 24.5881 139.603 24.7256 139.863 24.8262C140.128 24.9212 140.396 24.9997 140.665 25.0617L142.796 25.581C143.088 25.6477 143.416 25.7406 143.78 25.8596C144.145 25.9786 144.497 26.1499 144.838 26.3735C145.178 26.597 145.461 26.8962 145.687 27.2711C145.918 27.6457 146.043 28.1276 146.062 28.7168C146.083 29.3279 145.972 29.8695 145.731 30.3417C145.495 30.8083 145.167 31.2015 144.746 31.5213C144.325 31.841 143.839 32.0865 143.288 32.2577C142.742 32.4288 142.166 32.5243 141.56 32.5444ZM152.702 32.1751C151.763 32.2062 150.93 32.0426 150.203 31.6845C149.481 31.3261 148.907 30.8071 148.48 30.1277C148.059 29.448 147.833 28.6418 147.802 27.7089L147.557 20.3194L149.553 20.2368L149.797 27.5936C149.812 28.0355 149.899 28.4286 150.057 28.7728C150.222 29.1169 150.436 29.4075 150.701 29.6445C150.965 29.876 151.266 30.049 151.603 30.1635C151.94 30.2779 152.285 30.3292 152.64 30.3175C153.006 30.3054 153.35 30.2312 153.673 30.0948C154.002 29.9529 154.29 29.7576 154.538 29.5091C154.787 29.2551 154.979 28.9511 155.114 28.597C155.25 28.243 155.311 27.8477 155.296 27.4113L155.053 20.0545L157.049 19.9883L157.295 27.3942C157.326 28.3271 157.151 29.1467 156.77 29.8529C156.395 30.559 155.856 31.1148 155.154 31.5203C154.457 31.9257 153.64 32.144 152.702 32.1751ZM159.727 31.6965L159.336 19.9126L164.205 19.7512C164.32 19.7474 164.467 19.7479 164.648 19.7529C164.828 19.7524 164.995 19.7632 165.148 19.7854C165.834 19.8665 166.403 20.0743 166.857 20.4088C167.316 20.7431 167.66 21.1741 167.891 21.7016C168.127 22.2236 168.255 22.8092 168.277 23.4584C168.309 24.4186 168.093 25.2531 167.631 25.9621C167.168 26.6655 166.437 27.1158 165.439 27.3127L164.598 27.4143L161.562 27.5149L161.699 31.6311L159.727 31.6965ZM166.494 31.4722L164.011 26.7538L166.001 26.2454L168.728 31.3981L166.494 31.4722ZM161.501 25.6737L164.316 25.5804C164.426 25.5768 164.548 25.5672 164.684 25.5518C164.82 25.5364 164.945 25.5104 165.058 25.4739C165.383 25.3812 165.635 25.2281 165.813 25.0146C165.997 24.801 166.123 24.562 166.191 24.2976C166.264 24.033 166.296 23.7752 166.288 23.5243C166.28 23.2733 166.23 23.0183 166.14 22.7591C166.055 22.4943 165.913 22.2615 165.715 22.0605C165.523 21.8593 165.262 21.7232 164.932 21.6523C164.816 21.6233 164.69 21.6084 164.553 21.6075C164.417 21.6011 164.294 21.5997 164.185 21.6033L161.37 21.6966L161.501 25.6737ZM170.531 31.3384L170.141 19.5544L175.01 19.393C175.124 19.3892 175.272 19.3898 175.452 19.3948C175.632 19.3942 175.799 19.4051 175.953 19.4273C176.638 19.5084 177.208 19.7161 177.661 20.0506C178.12 20.385 178.465 20.8159 178.695 21.3435C178.931 21.8655 179.06 22.4511 179.081 23.1003C179.103 23.744 179.013 24.3368 178.812 24.8787C178.612 25.4151 178.294 25.8653 177.858 26.2293C177.427 26.5931 176.876 26.838 176.203 26.9641C176.051 26.991 175.882 27.013 175.697 27.03C175.517 27.0469 175.373 27.0572 175.264 27.0608L172.367 27.1568L172.503 31.273L170.531 31.3384ZM172.306 25.3156L175.121 25.2222C175.23 25.2186 175.353 25.2091 175.489 25.1937C175.625 25.1782 175.749 25.1523 175.863 25.1157C176.187 25.023 176.439 24.87 176.618 24.6565C176.802 24.4429 176.928 24.2039 176.995 23.9395C177.069 23.6749 177.101 23.4171 177.093 23.1662C177.084 22.9152 177.035 22.6602 176.944 22.401C176.859 22.1362 176.718 21.9033 176.52 21.7024C176.327 21.5012 176.066 21.3651 175.736 21.2941C175.621 21.2652 175.494 21.2503 175.358 21.2493C175.221 21.2429 175.098 21.2416 174.989 21.2452L172.174 21.3385L172.306 25.3156ZM180.984 30.9919L180.593 19.208L185.462 19.0466C185.577 19.0428 185.725 19.0433 185.905 19.0483C186.085 19.0478 186.252 19.0586 186.406 19.0808C187.091 19.1619 187.661 19.3697 188.114 19.7042C188.573 20.0385 188.918 20.4695 189.148 20.997C189.384 21.519 189.513 22.1046 189.534 22.7538C189.566 23.714 189.35 24.5485 188.888 25.2575C188.425 25.961 187.695 26.4112 186.696 26.6081L185.856 26.7097L182.82 26.8103L182.956 30.9265L180.984 30.9919ZM187.752 30.7676L185.269 26.0492L187.259 25.5408L189.986 30.6935L187.752 30.7676ZM182.759 24.9691L185.574 24.8758C185.683 24.8722 185.805 24.8626 185.941 24.8472C186.077 24.8318 186.202 24.8058 186.316 24.7693C186.64 24.6766 186.892 24.5235 187.071 24.31C187.255 24.0964 187.381 23.8574 187.448 23.593C187.521 23.3284 187.554 23.0707 187.545 22.8197C187.537 22.5687 187.488 22.3137 187.397 22.0545C187.312 21.7898 187.17 21.5569 186.973 21.3559C186.78 21.1547 186.519 21.0187 186.189 20.9477C186.073 20.9187 185.947 20.9038 185.811 20.9029C185.674 20.8965 185.551 20.8951 185.442 20.8987L182.627 20.992L182.759 24.9691ZM191.952 30.6283L191.562 18.8444L193.534 18.779L193.924 30.563L191.952 30.6283ZM196.048 30.4926L196.039 30.2225L201.529 20.3655L196.128 20.5445L196.067 18.6951L204.88 18.4029L204.889 18.6812L199.432 28.5208L205.07 28.3339L205.132 30.1915L196.048 30.4926ZM207.392 30.1166L207.001 18.3326L208.973 18.2673L209.364 30.0512L207.392 30.1166ZM211.815 29.97L211.425 18.186L213.421 18.1198L219.163 26.2447L218.888 17.9387L220.884 17.8725L221.275 29.6564L219.278 29.7226L213.537 21.5977L213.812 29.9038L211.815 29.97ZM228.432 29.665C227.668 29.6903 226.946 29.5804 226.266 29.3353C225.592 29.0846 224.992 28.7058 224.467 28.1989C223.948 27.6918 223.534 27.0638 223.225 26.3149C222.916 25.5605 222.745 24.6923 222.713 23.7103C222.67 22.4228 222.874 21.3156 223.324 20.3886C223.773 19.4561 224.407 18.7333 225.226 18.2201C226.044 17.7014 226.977 17.4248 228.025 17.39C229.476 17.3419 230.636 17.6421 231.504 18.2906C232.377 18.9334 232.984 19.8581 233.324 21.0647L231.322 21.4506C231.075 20.7597 230.691 20.2154 230.17 19.8176C229.648 19.4143 228.995 19.2257 228.209 19.2518C227.418 19.2671 226.766 19.4607 226.254 19.8327C225.742 20.2046 225.363 20.7169 225.117 21.3695C224.877 22.022 224.771 22.7792 224.799 23.6411C224.828 24.5031 224.984 25.2489 225.267 25.8785C225.55 26.5027 225.959 26.9834 226.494 27.3206C227.035 27.6577 227.701 27.8186 228.493 27.8033C229.088 27.789 229.605 27.6654 230.045 27.4323C230.485 27.1938 230.84 26.8462 231.108 26.3894C231.377 25.9272 231.549 25.3562 231.625 24.6765L229.547 24.7454L229.495 23.1988L233.669 23.0604C233.683 23.1474 233.695 23.2753 233.706 23.4442C233.717 23.6132 233.723 23.714 233.724 23.7467C233.761 24.8597 233.573 25.8572 233.16 26.7392C232.752 27.6157 232.147 28.313 231.345 28.8311C230.543 29.3492 229.572 29.6272 228.432 29.665ZM152.91 59.2353C151.984 59.266 151.108 59.1327 150.284 58.8355C149.466 58.5314 148.738 58.072 148.102 57.4572C147.472 56.8422 146.97 56.0806 146.596 55.1723C146.221 54.2574 146.014 53.2044 145.974 52.0135C145.922 50.452 146.169 49.1091 146.715 47.9848C147.26 46.854 148.03 45.9773 149.022 45.3549C150.015 44.7259 151.146 44.3903 152.417 44.3482C154.177 44.2898 155.583 44.6539 156.636 45.4404C157.695 46.22 158.431 47.3415 158.844 48.8049L156.415 49.2729C156.116 48.435 155.65 47.7748 155.018 47.2923C154.386 46.8033 153.593 46.5745 152.641 46.6061C151.681 46.6247 150.89 46.8595 150.27 47.3106C149.649 47.7618 149.189 48.3831 148.891 49.1746C148.599 49.9658 148.47 50.8842 148.505 51.9296C148.54 52.975 148.729 53.8795 149.072 54.6431C149.415 55.4001 149.911 55.9831 150.561 56.3921C151.217 56.8009 152.025 56.996 152.984 56.9775C153.706 56.9602 154.333 56.8102 154.867 56.5276C155.401 56.2383 155.831 55.8167 156.157 55.2627C156.483 54.7022 156.691 54.0097 156.783 53.1853L154.262 53.2688L154.2 51.3931L159.262 51.2253C159.279 51.3307 159.294 51.4859 159.307 51.6908C159.321 51.8957 159.328 52.018 159.329 52.0577C159.374 53.4074 159.146 54.6172 158.645 55.687C158.15 56.7499 157.416 57.5956 156.444 58.224C155.471 58.8524 154.293 59.1895 152.91 59.2353ZM161.742 58.6445L161.268 44.3529L163.66 44.2736L164.134 58.5652L161.742 58.6445ZM167.107 58.4667L166.633 44.175L175.238 43.8898L175.317 46.2817L169.104 46.4876L169.222 50.0506L174.244 49.8842L174.323 52.2661L169.301 52.4326L169.498 58.3874L167.107 58.4667ZM180.931 58.0085L180.531 45.9598L175.906 46.1131L175.832 43.8701L187.474 43.4843L187.548 45.7273L182.923 45.8806L183.322 57.9292L180.931 58.0085ZM194.834 57.8457C193.789 57.8804 192.84 57.7297 191.987 57.3936C191.142 57.0573 190.436 56.5607 189.871 55.9038C189.313 55.2401 188.945 54.4442 188.769 53.5161L191.237 53.0567C191.477 53.8966 191.932 54.5373 192.603 54.9787C193.28 55.4199 194.048 55.6263 194.908 55.5978C195.418 55.5809 195.895 55.4856 196.34 55.3119C196.784 55.1382 197.141 54.8945 197.408 54.581C197.683 54.2672 197.813 53.8886 197.798 53.4453C197.791 53.2468 197.752 53.066 197.681 52.9028C197.609 52.7329 197.504 52.584 197.368 52.4561C197.238 52.3279 197.068 52.2143 196.86 52.1152C196.657 52.0093 196.423 51.9211 196.155 51.8505L192.427 50.8811C192.107 50.799 191.758 50.688 191.383 50.5481C191.014 50.4014 190.659 50.1978 190.319 49.9375C189.986 49.6704 189.706 49.3286 189.481 48.9122C189.261 48.4889 189.141 47.963 189.12 47.3344C189.09 46.4147 189.296 45.6362 189.738 44.9989C190.187 44.3548 190.8 43.8642 191.577 43.5271C192.361 43.1898 193.236 43.0084 194.202 42.983C195.182 42.9572 196.061 43.097 196.839 43.4024C197.617 43.7011 198.275 44.1529 198.812 44.7578C199.348 45.3626 199.737 46.1015 199.978 46.9745L197.422 47.5063C197.3 47.007 197.08 46.587 196.764 46.2464C196.455 45.899 196.079 45.6399 195.636 45.4691C195.2 45.2981 194.737 45.2141 194.246 45.2171C193.77 45.2263 193.329 45.3137 192.924 45.4795C192.525 45.6385 192.204 45.861 191.962 46.1473C191.727 46.4333 191.615 46.7615 191.627 47.1321C191.639 47.4827 191.754 47.7671 191.974 47.985C192.192 48.1963 192.46 48.363 192.775 48.485C193.097 48.6002 193.421 48.6954 193.748 48.7707L196.332 49.4004C196.686 49.4814 197.084 49.5941 197.526 49.7384C197.968 49.8827 198.395 50.0905 198.809 50.3616C199.222 50.6327 199.565 50.9956 199.838 51.4502C200.118 51.9046 200.27 52.489 200.294 53.2036C200.318 53.9447 200.184 54.6016 199.892 55.1743C199.606 55.7401 199.208 56.217 198.698 56.6049C198.187 56.9927 197.598 57.2904 196.929 57.4981C196.267 57.7055 195.568 57.8214 194.834 57.8457ZM207.546 57.1263L207.473 54.9329L209.865 54.8536L209.938 57.047L207.546 57.1263ZM207.428 53.5534L207.072 42.8346L209.464 42.7554L209.819 53.4741L207.428 53.5534ZM214.699 56.8892L214.626 54.6958L217.018 54.6165L217.091 56.8099L214.699 56.8892ZM214.58 53.3163L214.225 42.5976L216.617 42.5183L216.972 53.237L214.58 53.3163ZM221.852 56.6521L221.779 54.4587L224.171 54.3795L224.244 56.5728L221.852 56.6521ZM221.733 53.0792L221.378 42.3605L223.77 42.2812L224.125 52.9999L221.733 53.0792Z" fill="white"/>
<rect x="55.8594" y="211.61" width="39.184" height="41.633" rx="3.63901" fill="#FC5B41"/>
<rect x="54.0222" y="211.794" width="42.8575" height="12.5617" fill="#D14C37"/>
<rect x="69.9402" y="211.61" width="11.0205" height="41.633" fill="#FEC337"/>
<path d="M62.2396 207.927C61.1547 207.557 60.6781 206.288 61.2511 205.295L62.5292 203.081C63.0948 202.101 64.4081 201.869 65.2748 202.597L73.2538 209.293C73.5753 209.563 73.7277 209.984 73.6534 210.397C73.5266 211.102 72.8016 211.529 72.1233 211.298L62.2396 207.927Z" fill="#D5D5D6"/>
<path d="M88.7352 207.924C89.8192 207.551 90.293 206.281 89.7177 205.29L88.4346 203.078C87.8667 202.1 86.5529 201.871 85.6879 202.6L77.7241 209.315C77.4033 209.585 77.2517 210.007 77.327 210.42C77.4554 211.125 78.1814 211.55 78.8591 211.317L88.7352 207.924Z" fill="#D5D5D6"/>
<path d="M61.3894 203.832C60.3824 203.24 60.1851 201.867 60.985 201.016L63.9507 197.862C64.7389 197.024 66.0977 197.118 66.762 198.058L73.4532 207.522C73.7752 207.978 73.824 208.572 73.5803 209.074C73.1903 209.878 72.1983 210.178 71.4282 209.726L61.3894 203.832Z" fill="#FEC337"/>
<path d="M89.0606 202.203C89.9622 201.495 89.9927 200.14 89.1238 199.393L86.4002 197.049C85.5425 196.311 84.2265 196.527 83.6489 197.5L77.3721 208.073C77.1259 208.488 77.1205 209.002 77.3579 209.422C77.7634 210.139 78.712 210.327 79.3598 209.818L89.0606 202.203Z" fill="#FEC337"/>
<circle cx="75.4526" cy="211.61" r="3.6735" fill="#FEC337"/>
<rect x="109.688" y="211.61" width="39.184" height="41.633" rx="3.63901" fill="#FC5B41"/>
<rect x="107.85" y="211.794" width="42.8575" height="12.5617" fill="#D14C37"/>
<rect x="123.768" y="211.61" width="11.0205" height="41.633" fill="#FEC337"/>
<path d="M116.067 207.927C114.983 207.557 114.506 206.288 115.079 205.295L116.357 203.081C116.923 202.101 118.236 201.869 119.103 202.597L127.082 209.293C127.403 209.563 127.556 209.984 127.481 210.397C127.354 211.102 126.629 211.529 125.951 211.298L116.067 207.927Z" fill="#D5D5D6"/>
<path d="M142.563 207.924C143.647 207.551 144.121 206.281 143.546 205.29L142.262 203.078C141.695 202.1 140.381 201.871 139.516 202.6L131.552 209.315C131.231 209.585 131.08 210.007 131.155 210.42C131.283 211.125 132.009 211.55 132.687 211.317L142.563 207.924Z" fill="#D5D5D6"/>
<path d="M115.217 203.832C114.21 203.24 114.013 201.867 114.813 201.016L117.779 197.862C118.567 197.024 119.926 197.118 120.59 198.058L127.281 207.522C127.603 207.978 127.652 208.572 127.408 209.074C127.018 209.878 126.026 210.178 125.256 209.726L115.217 203.832Z" fill="#FEC337"/>
<path d="M142.888 202.203C143.79 201.495 143.821 200.14 142.952 199.393L140.228 197.049C139.37 196.311 138.054 196.527 137.477 197.5L131.2 208.073C130.954 208.488 130.948 209.002 131.186 209.422C131.591 210.139 132.54 210.327 133.188 209.818L142.888 202.203Z" fill="#FEC337"/>
<circle cx="129.28" cy="211.61" r="3.6735" fill="#FEC337"/>
<rect x="163.515" y="211.61" width="39.184" height="41.633" rx="3.63901" fill="#FC5B41"/>
<rect x="161.677" y="211.794" width="42.8575" height="12.5617" fill="#D14C37"/>
<rect x="177.595" y="211.61" width="11.0205" height="41.633" fill="#FEC337"/>
<path d="M169.895 207.927C168.81 207.557 168.334 206.288 168.907 205.295L170.185 203.081C170.75 202.101 172.064 201.869 172.93 202.597L180.909 209.293C181.231 209.563 181.383 209.984 181.309 210.397C181.182 211.102 180.457 211.529 179.779 211.298L169.895 207.927Z" fill="#D5D5D6"/>
<path d="M196.39 207.924C197.475 207.551 197.948 206.281 197.373 205.29L196.09 203.078C195.522 202.1 194.208 201.871 193.343 202.6L185.379 209.315C185.059 209.585 184.907 210.007 184.982 210.42C185.111 211.125 185.837 211.55 186.514 211.317L196.39 207.924Z" fill="#D5D5D6"/>
<path d="M169.045 203.832C168.038 203.24 167.84 201.867 168.64 201.016L171.606 197.862C172.394 197.024 173.753 197.118 174.417 198.058L181.108 207.522C181.431 207.978 181.479 208.572 181.236 209.074C180.846 209.878 179.854 210.178 179.083 209.726L169.045 203.832Z" fill="#FEC337"/>
<path d="M196.716 202.203C197.618 201.495 197.648 200.14 196.779 199.393L194.055 197.049C193.198 196.311 191.882 196.527 191.304 197.5L185.027 208.073C184.781 208.488 184.776 209.002 185.013 209.422C185.419 210.139 186.367 210.327 187.015 209.818L196.716 202.203Z" fill="#FEC337"/>
<circle cx="183.108" cy="211.61" r="3.6735" fill="#FEC337"/>
<path d="M192.396 97.8171C192.704 99.191 193.01 100.568 193.313 101.947L196.559 103.356L193.097 104.241L191.768 107.888C191.444 106.635 191.123 105.382 190.799 104.125L187.493 103.023L191.002 101.813L192.396 97.8171Z" fill="#FC5B41"/>
<path d="M15.9589 140.784C16.2676 142.158 16.5734 143.534 16.8763 144.914L20.1218 146.322L16.6599 147.208L15.3314 150.854C15.0068 149.601 14.6866 148.349 14.3621 147.091L11.0559 145.99L14.5654 144.78L15.9589 140.784Z" fill="#FC5B41"/>
<path d="M150.343 181.922C150.652 183.295 150.958 184.672 151.261 186.052L154.506 187.46L151.044 188.346L149.716 191.992C149.391 190.739 149.071 189.487 148.747 188.229L145.44 187.128L148.95 185.918L150.343 181.922Z" fill="#FC5B41"/>
<path d="M43.9663 63.0785L36.1356 39.3098L27.5111 45.182L43.9663 63.0785Z" fill="#F92908"/>
<path d="M39.3955 63.9926L27.8594 51.1941L22.9403 58.7509L39.3955 63.9926Z" fill="#F92908"/>
<rect x="2.63721" y="94.448" width="13.1047" height="13.1047" rx="6.55237" fill="#FFAF00"/>
<path d="M7.55237 106.351C11.1711 106.351 14.1047 103.417 14.1047 99.7987C14.1047 96.1799 11.1711 93.2463 7.55237 93.2463C3.93359 93.2463 1 96.1799 1 99.7987C1 103.417 3.93359 106.351 7.55237 106.351Z" stroke="#595959" stroke-width="0.217355" stroke-miterlimit="10" stroke-linecap="round" stroke-linejoin="round"/>
</svg>
