<svg width="221" height="47" viewBox="0 0 221 47" fill="none" xmlns="http://www.w3.org/2000/svg">
<path d="M39.2374 18.2054V18.9883C40.2196 17.6223 41.4934 16.4926 42.9663 15.6811C44.5683 14.9562 46.311 14.5959 48.0689 14.6262C49.6622 14.5992 51.2356 14.9829 52.638 15.7403C53.9468 16.4485 54.9993 17.5517 55.646 18.8929C56.0737 19.6892 56.3542 20.5563 56.4742 21.4523C56.6149 22.6178 56.6782 23.7914 56.6637 24.9653V37.0096C56.7405 38.0653 56.4244 39.1121 55.7764 39.9484C55.4887 40.2739 55.133 40.5319 54.7343 40.704C54.3357 40.8761 53.9041 40.9581 53.4702 40.9441C53.0284 40.9587 52.5889 40.8748 52.1834 40.6984C51.778 40.522 51.4168 40.2576 51.126 39.9243C50.4771 39.0986 50.1558 38.062 50.2236 37.0136V26.2169C50.3131 24.5383 50.0092 22.862 49.3362 21.3218C48.744 20.1924 47.5639 19.6276 45.7958 19.6276C44.5224 19.6191 43.2734 19.9769 42.1973 20.6584C41.2322 21.3695 40.5056 22.3572 40.1137 23.4908C39.7146 25.2631 39.5554 27.081 39.6405 28.8958V37.0016C39.7218 38.0654 39.3959 39.1203 38.729 39.9525C38.4298 40.276 38.0644 40.5313 37.6579 40.7011C37.2513 40.8708 36.813 40.9509 36.3728 40.9361C35.9383 40.9473 35.5068 40.8616 35.1095 40.6853C34.7122 40.5089 34.359 40.2462 34.0757 39.9163C33.4268 39.0905 33.1055 38.054 33.1733 37.0056V18.2997C33.0961 17.3123 33.3813 16.3306 33.9754 15.5386C34.2525 15.2323 34.5942 14.9916 34.9757 14.8338C35.3572 14.676 35.769 14.6051 36.1813 14.6262C36.7211 14.6185 37.2529 14.7572 37.7204 15.0277C38.196 15.3148 38.5789 15.7329 38.8233 16.2321C39.1168 16.8473 39.2588 17.524 39.2374 18.2054Z" fill="white"/>
<path d="M82.5697 32.4749C82.6453 34.1135 82.1827 35.7317 81.2525 37.0821C80.3223 38.4325 78.9758 39.4407 77.419 39.9525C75.4326 40.6562 73.3341 40.9896 71.2275 40.9361C69.187 40.9878 67.1572 40.6248 65.2607 39.8691C63.8232 39.3211 62.5568 38.4008 61.5909 37.2023C60.8566 36.2898 60.4408 35.1618 60.4068 33.9905C60.4017 33.6506 60.4663 33.3132 60.5965 32.9992C60.7267 32.6852 60.9197 32.4012 61.1638 32.1648C61.415 31.9142 61.7147 31.7177 62.0446 31.5874C62.3744 31.4571 62.7274 31.3957 63.0819 31.407C63.6473 31.3704 64.2055 31.5497 64.644 31.9088C65.064 32.3159 65.4157 32.788 65.6858 33.307C66.2495 34.3545 67.0678 35.2431 68.0651 35.8905C69.2222 36.5161 70.5288 36.8112 71.8422 36.7437C72.9674 36.7913 74.0799 36.4891 75.0266 35.8785C75.3832 35.6795 75.684 35.3939 75.9013 35.048C76.1185 34.7021 76.2453 34.307 76.2699 33.8992C76.304 33.4056 76.2016 32.9123 75.974 32.4732C75.7463 32.0341 75.4023 31.6662 74.9795 31.41C73.6404 30.7136 72.2094 30.2107 70.7292 29.9165C68.8736 29.484 67.0561 28.9013 65.2948 28.1741C64.0054 27.6437 62.8579 26.8188 61.9439 25.7652C61.0941 24.7336 60.648 23.4281 60.6885 22.0917C60.6942 20.7777 61.0988 19.4966 61.8486 18.4182C62.7075 17.1946 63.893 16.2377 65.2697 15.657C66.9943 14.9268 68.8553 14.5753 70.7272 14.6262C72.2472 14.6078 73.7633 14.7829 75.2392 15.1471C76.4202 15.43 77.5477 15.9021 78.5781 16.5452C79.383 17.0461 80.0762 17.7076 80.6145 18.4884C81.0486 19.0992 81.2928 19.8248 81.3164 20.5741C81.3276 20.9137 81.267 21.2519 81.1384 21.5663C81.0098 21.8808 80.8163 22.1645 80.5704 22.3988C79.9846 22.9047 79.2238 23.1602 78.4518 23.1104C77.8378 23.1272 77.2378 22.9255 76.7582 22.5413C76.1671 22.0303 75.6314 21.4584 75.16 20.835C74.6894 20.2203 74.1019 19.7048 73.4314 19.3184C72.5954 18.9 71.6658 18.7041 70.7322 18.7494C69.7112 18.7115 68.7012 18.9709 67.8245 19.4961C67.4839 19.6757 67.197 19.9427 66.9932 20.2696C66.7894 20.5965 66.6759 20.9718 66.6644 21.357C66.6604 21.6838 66.7359 22.0068 66.8844 22.2979C67.0329 22.589 67.2499 22.8396 67.5167 23.0281C68.2111 23.5234 68.9893 23.8886 69.8138 24.1061C70.7763 24.3905 72.1022 24.7381 73.7914 25.1489C75.4947 25.5294 77.1448 26.1183 78.7044 26.9024C79.8414 27.4695 80.8305 28.2944 81.5931 29.3113C82.2457 30.2354 82.5878 31.3433 82.5697 32.4749Z" fill="white"/>
<path d="M88.3961 15.1952H89.1059V11.3079C89.1059 10.2647 89.1334 9.44707 89.1882 8.85489C89.2266 8.31737 89.3841 7.79517 89.6494 7.32625C89.91 6.87628 90.2859 6.50413 90.7383 6.24828C91.2201 5.96976 91.7681 5.82656 92.3245 5.83375C93.1586 5.83896 93.9576 6.17075 94.5504 6.75815C94.9853 7.15633 95.2804 7.68432 95.3917 8.26369C95.5284 9.09785 95.5878 9.94289 95.5691 10.788V15.1962H97.9364C98.6917 15.1439 99.4392 15.3762 100.032 15.8476C100.267 16.0562 100.454 16.314 100.579 16.6027C100.704 16.8915 100.764 17.2042 100.755 17.5188C100.785 17.8912 100.703 18.2642 100.52 18.5896C100.336 18.915 100.059 19.1779 99.7252 19.3445C98.7945 19.7389 97.7867 19.917 96.7774 19.8654H95.5742V31.7642C95.5625 32.5438 95.598 33.3235 95.6804 34.0988C95.728 34.5894 95.9267 35.053 96.249 35.4257C96.4496 35.612 96.6873 35.7538 96.9465 35.8416C97.2057 35.9295 97.4805 35.9615 97.753 35.9356C98.2712 35.9183 98.7866 35.8511 99.292 35.7348C99.7895 35.6199 100.297 35.5527 100.807 35.5341C101.072 35.5374 101.334 35.5948 101.576 35.7028C101.818 35.8109 102.036 35.9673 102.216 36.1624C102.421 36.3646 102.582 36.6066 102.69 36.8737C102.798 37.1407 102.85 37.4271 102.843 37.7151C102.834 38.2398 102.666 38.7493 102.362 39.1766C102.058 39.6039 101.631 39.929 101.139 40.1089C99.5851 40.7394 97.9125 41.0227 96.2379 40.939C94.641 41.0403 93.0481 40.6868 91.6437 39.9192C90.6267 39.2749 89.8939 38.266 89.5953 37.0989C89.2308 35.522 89.0677 33.9051 89.11 32.2871V19.8644H88.2577C87.4895 19.9181 86.7292 19.6813 86.127 19.201C85.889 18.9913 85.6999 18.7319 85.5731 18.4411C85.4463 18.1502 85.3848 17.835 85.3931 17.5178C85.3856 17.1989 85.4512 16.8825 85.5846 16.5928C85.7181 16.3032 85.916 16.0479 86.1631 15.8466C86.807 15.3719 87.5982 15.1411 88.3961 15.1952Z" fill="white"/>
<path d="M121.545 37.2868C120.162 38.3964 118.637 39.3169 117.01 40.0239C115.449 40.6515 113.779 40.962 112.097 40.9373C110.583 40.9699 109.083 40.6322 107.729 39.9536C106.533 39.3529 105.528 38.4296 104.828 37.2878C104.156 36.1896 103.803 34.9253 103.81 33.6374C103.773 31.9685 104.374 30.3485 105.492 29.1097C106.722 27.8022 108.339 26.923 110.104 26.6004C110.514 26.5061 111.533 26.293 113.159 25.9611C114.785 25.6292 116.178 25.3247 117.338 25.0477C118.499 24.772 119.758 24.4375 121.115 24.044C121.148 22.7176 120.79 21.4109 120.086 20.2872C119.478 19.4895 118.219 19.0904 116.309 19.0897C115.034 19.0143 113.761 19.2503 112.599 19.7773C111.728 20.2765 110.996 20.9855 110.468 21.8399C110.08 22.4652 109.661 23.0706 109.213 23.6536C108.994 23.8304 108.742 23.9606 108.471 24.036C108.2 24.1115 107.917 24.1306 107.638 24.0922C106.945 24.1036 106.272 23.8527 105.755 23.3896C105.498 23.1692 105.294 22.8942 105.157 22.5846C105.019 22.275 104.953 21.9386 104.962 21.6C104.986 20.3913 105.409 19.2245 106.166 18.2818C107.158 17.0722 108.459 16.1547 109.931 15.627C111.967 14.8749 114.129 14.5209 116.299 14.5841C118.576 14.4918 120.85 14.8324 123 15.5878C124.52 16.1609 125.756 17.3045 126.445 18.7756C127.186 20.6103 127.528 22.5818 127.448 24.5589C127.448 26.0758 127.444 27.3636 127.436 28.4221C127.428 29.4807 127.416 30.6577 127.401 31.9532C127.412 33.244 127.615 34.526 128.003 35.7572C128.295 36.5821 128.497 37.4367 128.604 38.3056C128.592 38.6584 128.502 39.0041 128.34 39.3178C128.179 39.6314 127.949 39.9052 127.669 40.1192C127.089 40.6476 126.333 40.9394 125.549 40.9373C124.796 40.8966 124.09 40.5601 123.584 40.0008C122.796 39.1832 122.111 38.2717 121.545 37.2868ZM121.119 27.9243C119.768 28.3824 118.387 28.7513 116.987 29.0284C115.183 29.4158 113.932 29.7002 113.234 29.8815C112.5 30.084 111.82 30.4485 111.245 30.9485C110.929 31.2209 110.679 31.5623 110.515 31.9465C110.351 32.3307 110.277 32.7474 110.299 33.1646C110.293 33.637 110.39 34.105 110.582 34.5365C110.774 34.9681 111.057 35.353 111.411 35.6648C112.211 36.3727 113.253 36.7423 114.319 36.6956C115.55 36.7072 116.765 36.4185 117.859 35.8545C118.846 35.3798 119.674 34.6257 120.238 33.6855C120.931 32.1728 121.232 30.5097 121.114 28.8497L121.119 27.9243Z" fill="white"/>
<path d="M134.024 37.0016V8.9373C133.948 7.88535 134.255 6.84143 134.888 5.99847C135.177 5.66849 135.537 5.40776 135.941 5.23544C136.345 5.06313 136.782 4.98361 137.22 5.0028C137.662 4.98561 138.103 5.06464 138.512 5.23446C138.92 5.40428 139.287 5.66085 139.587 5.98644C140.248 6.8217 140.57 7.87514 140.49 8.9373V37.0016C140.571 38.0654 140.245 39.1202 139.578 39.9525C139.279 40.2761 138.914 40.5314 138.507 40.7011C138.101 40.8708 137.662 40.951 137.222 40.9361C136.786 40.9493 136.353 40.8646 135.953 40.6881C135.554 40.5117 135.2 40.2479 134.916 39.9163C134.273 39.0864 133.956 38.0497 134.024 37.0016Z" fill="white"/>
<path d="M165.207 29.3694H152.564C152.551 30.717 152.855 32.0487 153.451 33.2567C153.941 34.2857 154.716 35.1521 155.683 35.753C156.651 36.3539 157.77 36.664 158.909 36.6462C159.624 36.6538 160.338 36.5619 161.028 36.3732C161.687 36.1831 162.313 35.8955 162.887 35.5201C163.469 35.1463 164.023 34.7303 164.545 34.2755C165.05 33.8339 165.705 33.2336 166.51 32.4749C166.917 32.1661 167.421 32.0146 167.931 32.0483C168.517 32.0217 169.091 32.2162 169.541 32.5933C169.75 32.7889 169.914 33.0285 170.021 33.2948C170.127 33.5611 170.174 33.8476 170.157 34.134C170.11 34.8657 169.873 35.5726 169.47 36.1845C168.928 37.0593 168.225 37.8232 167.398 38.4358C166.346 39.2221 165.169 39.827 163.918 40.2254C162.361 40.7234 160.733 40.9634 159.099 40.936C154.947 40.936 151.719 39.751 149.414 37.3809C147.11 35.0109 145.957 31.795 145.957 27.7334C145.941 25.9249 146.229 24.1265 146.809 22.4138C147.334 20.8522 148.182 19.4187 149.296 18.2063C150.417 17.016 151.794 16.0962 153.322 15.5164C155.016 14.8742 156.815 14.5565 158.626 14.5799C160.897 14.5159 163.143 15.0688 165.125 16.1799C166.839 17.1506 168.246 18.5838 169.186 20.3161C170.058 21.8994 170.522 23.6753 170.536 25.4831C170.536 27.1104 170.07 28.1653 169.139 28.6478C167.902 29.1904 166.556 29.4375 165.207 29.3694ZM152.563 25.6959H164.283C164.276 23.8838 163.645 22.1295 162.495 20.7296C161.97 20.1807 161.334 19.7499 160.63 19.4659C159.926 19.182 159.169 19.0513 158.41 19.0825C157.668 19.0598 156.93 19.1973 156.245 19.4857C155.561 19.774 154.946 20.2065 154.444 20.7537C153.296 22.1523 152.636 23.8876 152.564 25.6959H152.563Z" fill="white"/>
<path d="M181.855 18.2054V18.9883C182.837 17.6223 184.111 16.4925 185.585 15.6811C187.027 14.9565 188.624 14.5944 190.237 14.6262C191.831 14.599 193.405 14.9827 194.807 15.7403C196.116 16.4486 197.168 17.5517 197.815 18.8929C198.243 19.6892 198.524 20.5562 198.644 21.4523C198.785 22.6178 198.848 23.7914 198.834 24.9653V37.0096C198.91 38.0654 198.594 39.1122 197.946 39.9484C197.658 40.274 197.302 40.532 196.904 40.7041C196.505 40.8762 196.073 40.9582 195.639 40.9441C195.198 40.9587 194.758 40.8748 194.353 40.6984C193.947 40.522 193.586 40.2576 193.295 39.9243C192.646 39.0987 192.325 38.0621 192.393 37.0136V26.2169C192.482 24.5382 192.178 22.8618 191.504 21.3218C190.913 20.1924 189.733 19.6276 187.965 19.6276C186.831 19.6212 185.726 19.9829 184.816 20.6584C183.851 21.3695 183.124 22.3572 182.732 23.4908C182.333 25.2631 182.174 27.081 182.259 28.8958V37.0016C182.34 38.0655 182.014 39.1204 181.346 39.9525C181.047 40.2761 180.682 40.5314 180.275 40.7012C179.869 40.8709 179.43 40.951 178.99 40.9361C178.556 40.9474 178.124 40.8617 177.727 40.6854C177.329 40.509 176.976 40.2463 176.693 39.9163C176.044 39.0906 175.723 38.054 175.791 37.0056V18.2997C175.714 17.3123 175.999 16.3307 176.593 15.5386C176.87 15.2323 177.212 14.9916 177.593 14.8338C177.975 14.676 178.386 14.6051 178.799 14.6262C179.338 14.6184 179.87 14.7572 180.338 15.0277C180.814 15.3145 181.196 15.7328 181.441 16.2321C181.734 16.8473 181.876 17.524 181.855 18.2054Z" fill="white"/>
<path d="M205.627 15.1952H206.337V11.3079C206.337 10.2648 206.365 9.44707 206.42 8.85489C206.459 8.31738 206.616 7.79519 206.881 7.32625C207.142 6.87616 207.518 6.50398 207.97 6.24828C208.452 5.96976 209 5.82656 209.556 5.83375C210.391 5.83907 211.189 6.17084 211.782 6.75815C212.217 7.15634 212.512 7.68437 212.623 8.26369C212.76 9.09782 212.819 9.94289 212.8 10.788V15.1962H215.167C215.923 15.144 216.67 15.3763 217.263 15.8476C217.498 16.0562 217.685 16.314 217.81 16.6028C217.935 16.8915 217.995 17.2042 217.986 17.5188C218.016 17.8913 217.934 18.2642 217.75 18.5896C217.567 18.915 217.29 19.1779 216.956 19.3445C216.025 19.7389 215.018 19.917 214.008 19.8654H212.805V31.7642C212.793 32.5439 212.829 33.3235 212.911 34.0989C212.959 34.5895 213.157 35.0532 213.48 35.4257C213.68 35.6121 213.918 35.7539 214.177 35.8418C214.437 35.9296 214.711 35.9616 214.984 35.9356C215.502 35.9183 216.018 35.8511 216.523 35.7349C217.02 35.6199 217.528 35.5527 218.038 35.5341C218.303 35.5374 218.565 35.5949 218.807 35.7029C219.049 35.8109 219.267 35.9673 219.447 36.1625C219.652 36.3646 219.813 36.6066 219.921 36.8737C220.029 37.1408 220.081 37.4272 220.074 37.7152C220.065 38.2398 219.897 38.7494 219.593 39.1767C219.289 39.604 218.862 39.929 218.37 40.109C216.816 40.7395 215.143 41.0228 213.469 40.939C211.872 41.0402 210.28 40.6866 208.876 39.9193C207.859 39.2748 207.126 38.266 206.827 37.0989C206.463 35.522 206.3 33.9052 206.342 32.2872V19.8644H205.49C204.721 19.9181 203.961 19.6814 203.359 19.201C203.121 18.9913 202.932 18.7319 202.805 18.4411C202.678 18.1502 202.617 17.835 202.625 17.5178C202.617 17.1989 202.683 16.8825 202.816 16.5928C202.95 16.3032 203.148 16.0479 203.395 15.8466C204.039 15.372 204.829 15.1413 205.627 15.1952Z" fill="white"/>
<path d="M13.4036 0.00439453C15.8482 0.00439453 26.7652 0.252307 26.8544 14.3522C26.8544 32.6647 13.4036 46.1744 13.4036 46.1744C13.4036 46.1744 0 29.1387 0 14.7878C0 0.436987 10.9591 0.00439453 13.4036 0.00439453Z" fill="#FC7C35"/>
<path d="M13.4036 0.00430918C16.4046 -0.0685784 19.3553 0.784698 21.8551 2.4483C6.07315 9.47818 13.4036 46.1742 13.4036 46.1742C13.4036 46.1742 0 29.1385 0 14.7877C0 0.436901 10.9591 0.00430918 13.4036 0.00430918Z" fill="#CF5612"/>
<path d="M13.4026 19.9689C16.3857 19.9689 18.8039 17.5481 18.8039 14.562C18.8039 11.5758 16.3857 9.15503 13.4026 9.15503C10.4195 9.15503 8.00122 11.5758 8.00122 14.562C8.00122 17.5481 10.4195 19.9689 13.4026 19.9689Z" fill="white"/>
<path d="M13.4026 9.15503C7.89796 12.2555 9.37489 17.3542 13.4026 19.9699C11.9699 19.9699 10.596 19.4002 9.58291 18.3861C8.56986 17.372 8.00073 15.9966 8.00073 14.5625C8.00073 13.1283 8.56986 11.7529 9.58291 10.7388C10.596 9.72474 11.9699 9.15503 13.4026 9.15503V9.15503Z" fill="#D1D1CC"/>
<path d="M12.9875 20.3853C14.3099 20.3853 15.5782 20.9111 16.5133 21.8472C17.4484 22.7833 17.9738 24.0528 17.9738 25.3766C17.9738 28.1328 15.043 44.0945 13.2442 44.0945C11.4454 44.0945 8.00122 28.1328 8.00122 25.3766C8.00122 24.0528 8.52656 22.7833 9.46166 21.8472C10.3968 20.9111 11.665 20.3853 12.9875 20.3853Z" fill="white"/>
<path d="M12.9875 20.3853C8.30202 22.8102 8.66298 29.9997 13.2442 44.0945C11.4454 44.0945 8.00122 28.1328 8.00122 25.3766C8.00122 24.0528 8.52656 22.7833 9.46166 21.8472C10.3968 20.9111 11.665 20.3853 12.9875 20.3853Z" fill="#D1D1CC"/>
</svg>
