<svg width="188" height="36" viewBox="0 0 188 36" fill="none" xmlns="http://www.w3.org/2000/svg">
<path d="M6.23764 13.2054V13.9883C7.21982 12.6223 8.49364 11.4926 9.96655 10.6811C11.5686 9.95616 13.3113 9.59589 15.0691 9.6262C16.6624 9.59922 18.2358 9.98289 19.6383 10.7403C20.947 11.4485 21.9996 12.5517 22.6462 13.8929C23.0739 14.6892 23.3545 15.5563 23.4745 16.4523C23.6152 17.6178 23.6785 18.7914 23.664 19.9653V32.0096C23.7408 33.0653 23.4247 34.1121 22.7766 34.9484C22.489 35.2739 22.1332 35.5319 21.7346 35.704C21.336 35.8761 20.9044 35.9581 20.4705 35.9441C20.0286 35.9587 19.5891 35.8748 19.1837 35.6984C18.7782 35.522 18.417 35.2576 18.1262 34.9243C17.4774 34.0986 17.156 33.062 17.2238 32.0136V21.2169C17.3133 19.5383 17.0094 17.862 16.3365 16.3218C15.7442 15.1924 14.5641 14.6276 12.7961 14.6276C11.5227 14.6191 10.2736 14.9769 9.19751 15.6584C8.23244 16.3695 7.50586 17.3572 7.11397 18.4908C6.71482 20.2631 6.55564 22.081 6.64071 23.8958V32.0016C6.722 33.0654 6.39618 34.1203 5.72929 34.9525C5.43002 35.276 5.06469 35.5313 4.65813 35.7011C4.25156 35.8708 3.81327 35.9509 3.37302 35.9361C2.93854 35.9473 2.50701 35.8616 2.1097 35.6853C1.7124 35.5089 1.35928 35.2462 1.07592 34.9163C0.427073 34.0905 0.105716 33.054 0.17352 32.0056V13.2997C0.0963651 12.3123 0.381552 11.3306 0.975647 10.5386C1.25278 10.2323 1.59446 9.99158 1.97597 9.83378C2.35748 9.67599 2.76926 9.60509 3.18152 9.6262C3.72134 9.61852 4.25317 9.75725 4.7206 10.0277C5.19619 10.3148 5.5791 10.7329 5.82353 11.2321C6.117 11.8473 6.259 12.524 6.23764 13.2054Z" fill="url(#paint0_linear_4_860)"/>
<path d="M49.5699 27.4749C49.6456 29.1135 49.1829 30.7317 48.2528 32.0821C47.3226 33.4325 45.9761 34.4407 44.4193 34.9525C42.4328 35.6562 40.3343 35.9896 38.2278 35.9361C36.1872 35.9878 34.1574 35.6248 32.2609 34.8691C30.8234 34.3211 29.557 33.4008 28.5912 32.2023C27.8569 31.2898 27.441 30.1618 27.407 28.9905C27.402 28.6506 27.4665 28.3132 27.5967 27.9992C27.7269 27.6852 27.92 27.4012 28.164 27.1648C28.4152 26.9142 28.715 26.7177 29.0448 26.5874C29.3747 26.4571 29.7277 26.3957 30.0821 26.407C30.6475 26.3704 31.2057 26.5497 31.6443 26.9088C32.0642 27.3159 32.416 27.788 32.686 28.307C33.2498 29.3545 34.0681 30.2431 35.0654 30.8905C36.2225 31.5161 37.5291 31.8112 38.8424 31.7437C39.9677 31.7913 41.0801 31.4891 42.0269 30.8785C42.3834 30.6795 42.6842 30.3939 42.9015 30.048C43.1188 29.7021 43.2456 29.307 43.2702 28.8992C43.3042 28.4056 43.2018 27.9123 42.9742 27.4732C42.7466 27.0341 42.4025 26.6662 41.9798 26.41C40.6406 25.7136 39.2096 25.2107 37.7295 24.9165C35.8738 24.484 34.0564 23.9013 32.295 23.1741C31.0056 22.6437 29.8581 21.8188 28.9441 20.7652C28.0944 19.7336 27.6482 18.4281 27.6888 17.0917C27.6945 15.7777 28.099 14.4966 28.8489 13.4182C29.7077 12.1946 30.8933 11.2377 32.2699 10.657C33.9946 9.92678 35.8556 9.57527 37.7275 9.62617C39.2474 9.60784 40.7636 9.7829 42.2394 10.1471C43.4204 10.43 44.5479 10.9021 45.5783 11.5452C46.3832 12.0461 47.0764 12.7076 47.6147 13.4884C48.0488 14.0992 48.293 14.8248 48.3166 15.5741C48.3279 15.9137 48.2672 16.2519 48.1386 16.5663C48.0101 16.8808 47.8165 17.1645 47.5706 17.3988C46.9848 17.9047 46.2241 18.1602 45.452 18.1104C44.838 18.1272 44.238 17.9255 43.7585 17.5413C43.1674 17.0303 42.6317 16.4584 42.1602 15.835C41.6897 15.2203 41.1022 14.7048 40.4316 14.3184C39.5956 13.9 38.6661 13.7041 37.7325 13.7494C36.7115 13.7115 35.7014 13.9709 34.8247 14.4961C34.4841 14.6757 34.1973 14.9427 33.9935 15.2696C33.7896 15.5965 33.6762 15.9718 33.6646 16.357C33.6607 16.6838 33.7362 17.0068 33.8847 17.2979C34.0331 17.589 34.2501 17.8396 34.5169 18.0281C35.2113 18.5234 35.9896 18.8886 36.814 19.1061C37.7766 19.3905 39.1024 19.7381 40.7916 20.1489C42.4949 20.5294 44.145 21.1183 45.7047 21.9024C46.8416 22.4695 47.8307 23.2944 48.5933 24.3113C49.246 25.2354 49.588 26.3433 49.5699 27.4749Z" fill="url(#paint1_linear_4_860)"/>
<path d="M55.3963 10.1952H56.1062V6.30792C56.1062 5.26474 56.1336 4.44707 56.1884 3.85489C56.2268 3.31737 56.3844 2.79517 56.6496 2.32625C56.9103 1.87628 57.2862 1.50413 57.7385 1.24828C58.2204 0.969758 58.7684 0.826556 59.3248 0.833755C60.1589 0.838963 60.9578 1.17075 61.5507 1.75815C61.9856 2.15633 62.2806 2.68432 62.3919 3.26369C62.5287 4.09785 62.5881 4.94289 62.5694 5.788V10.1962H64.9367C65.692 10.1439 66.4395 10.3762 67.0323 10.8476C67.2676 11.0562 67.4544 11.314 67.5793 11.6027C67.7042 11.8915 67.7643 12.2042 67.7552 12.5188C67.7853 12.8912 67.7033 13.2642 67.5198 13.5896C67.3363 13.915 67.0596 14.1779 66.7254 14.3445C65.7948 14.7389 64.7869 14.917 63.7776 14.8654H62.5744V26.7642C62.5628 27.5438 62.5983 28.3235 62.6807 29.0988C62.7283 29.5894 62.9269 30.053 63.2492 30.4257C63.4498 30.612 63.6875 30.7538 63.9467 30.8416C64.2059 30.9295 64.4808 30.9615 64.7532 30.9356C65.2715 30.9183 65.7869 30.8511 66.2923 30.7348C66.7898 30.6199 67.2971 30.5527 67.8073 30.5341C68.0725 30.5374 68.3342 30.5948 68.5764 30.7028C68.8186 30.8109 69.0363 30.9673 69.2161 31.1624C69.4211 31.3646 69.5826 31.6066 69.6906 31.8737C69.7986 32.1407 69.8507 32.4271 69.8437 32.7151C69.8344 33.2398 69.6666 33.7493 69.3623 34.1766C69.058 34.6039 68.6316 34.929 68.1392 35.1089C66.5853 35.7394 64.9127 36.0227 63.2382 35.939C61.6413 36.0403 60.0484 35.6868 58.6439 34.9192C57.6269 34.2749 56.8942 33.266 56.5955 32.0989C56.231 30.522 56.0679 28.9051 56.1102 27.2871V14.8644H55.2579C54.4898 14.9181 53.7295 14.6813 53.1273 14.201C52.8893 13.9913 52.7002 13.7319 52.5734 13.4411C52.4465 13.1502 52.3851 12.835 52.3933 12.5178C52.3859 12.1989 52.4514 11.8825 52.5849 11.5928C52.7183 11.3032 52.9162 11.0479 53.1634 10.8466C53.8073 10.3719 54.5985 10.1411 55.3963 10.1952Z" fill="url(#paint2_linear_4_860)"/>
<path d="M88.5454 32.2867C87.1617 33.3963 85.6366 34.3167 84.0104 35.0238C82.4494 35.6514 80.7793 35.9619 79.0973 35.9371C77.5829 35.9698 76.0833 35.6321 74.7287 34.9535C73.5325 34.3528 72.5279 33.4295 71.828 32.2877C71.1558 31.1895 70.8034 29.9252 70.8103 28.6372C70.7725 26.9684 71.3742 25.3484 72.4917 24.1096C73.7224 22.8021 75.3386 21.9228 77.104 21.6003C77.5144 21.506 78.5328 21.2928 80.1591 20.961C81.7855 20.6291 83.1785 20.3246 84.3382 20.0476C85.4987 19.7719 86.7577 19.4373 88.1153 19.0439C88.1484 17.7175 87.7902 16.4108 87.0856 15.287C86.4779 14.4894 85.2189 14.0903 83.3085 14.0896C82.0345 14.0142 80.7613 14.2502 79.5986 14.7772C78.728 15.2764 77.9956 15.9854 77.468 16.8397C77.0803 17.4651 76.6614 18.0704 76.2126 18.6534C75.9941 18.8303 75.7416 18.9605 75.4709 19.0359C75.2002 19.1113 74.9168 19.1305 74.6384 19.0921C73.9448 19.1035 73.2724 18.8526 72.7554 18.3895C72.4984 18.1691 72.2939 17.8941 72.1567 17.5845C72.0195 17.2749 71.9531 16.9385 71.9623 16.5999C71.9863 15.3911 72.4094 14.2243 73.1655 13.2817C74.1576 12.0721 75.4588 11.1546 76.9305 10.6268C78.9674 9.87479 81.1294 9.52078 83.2995 9.584C85.5764 9.49168 87.8501 9.83226 90.0003 10.5877C91.5195 11.1607 92.7555 12.3044 93.4455 13.7755C94.1858 15.6102 94.5276 17.5816 94.4481 19.5588C94.4481 21.0757 94.4441 22.3635 94.4361 23.422C94.4281 24.4806 94.4164 25.6576 94.401 26.953C94.412 28.2439 94.6147 29.5259 95.0026 30.757C95.2954 31.582 95.4972 32.4365 95.6042 33.3054C95.5922 33.6582 95.5021 34.004 95.3403 34.3176C95.1785 34.6313 94.9491 34.9051 94.6687 35.1191C94.0892 35.6474 93.3329 35.9393 92.5491 35.9371C91.7963 35.8965 91.09 35.56 90.5839 35.0007C89.7958 34.1831 89.1112 33.2716 88.5454 32.2867ZM88.1193 22.9242C86.7676 23.3823 85.3873 23.7511 83.9873 24.0283C82.1825 24.4157 80.9315 24.7001 80.2343 24.8814C79.4999 25.0838 78.8202 25.4484 78.245 25.9483C77.9286 26.2208 77.6787 26.5622 77.5147 26.9464C77.3506 27.3305 77.2766 27.7473 77.2985 28.1645C77.2932 28.6369 77.3898 29.1049 77.5819 29.5364C77.774 29.9679 78.057 30.3528 78.4115 30.6647C79.2106 31.3726 80.2531 31.7421 81.3192 31.6955C82.5497 31.707 83.7646 31.4183 84.8586 30.8544C85.8464 30.3797 86.6736 29.6256 87.238 28.6854C87.931 27.1727 88.2323 25.5096 88.1143 23.8496L88.1193 22.9242Z" fill="url(#paint3_linear_4_860)"/>
<path d="M101.024 32.0016V3.9373C100.948 2.88535 101.255 1.84143 101.888 0.998474C102.177 0.668489 102.537 0.407756 102.941 0.235441C103.345 0.0631263 103.782 -0.0163869 104.22 0.00280386C104.662 -0.0143919 105.103 0.0646438 105.512 0.234461C105.92 0.404279 106.287 0.660846 106.587 0.986436C107.248 1.8217 107.57 2.87514 107.49 3.9373V32.0016C107.571 33.0654 107.245 34.1202 106.578 34.9525C106.279 35.2761 105.914 35.5314 105.507 35.7011C105.101 35.8708 104.662 35.951 104.222 35.9361C103.786 35.9493 103.353 35.8646 102.953 35.6881C102.554 35.5117 102.2 35.2479 101.916 34.9163C101.273 34.0864 100.956 33.0497 101.024 32.0016Z" fill="url(#paint4_linear_4_860)"/>
<path d="M132.208 24.3695H119.564C119.551 25.7171 119.855 27.0488 120.452 28.2568C120.941 29.2858 121.716 30.1523 122.684 30.7532C123.651 31.3541 124.771 31.6641 125.909 31.6463C126.625 31.6539 127.338 31.5621 128.029 31.3733C128.687 31.1832 129.314 30.8957 129.888 30.5202C130.47 30.1464 131.024 29.7304 131.545 29.2756C132.05 28.834 132.706 28.2338 133.51 27.475C133.917 27.1662 134.422 27.0148 134.931 27.0484C135.517 27.0218 136.092 27.2163 136.541 27.5934C136.751 27.7891 136.915 28.0286 137.021 28.2949C137.128 28.5612 137.174 28.8478 137.157 29.1341C137.11 29.8658 136.874 30.5727 136.47 31.1847C135.928 32.0594 135.225 32.8233 134.399 33.4359C133.346 34.2223 132.17 34.8271 130.918 35.2255C129.362 35.7235 127.734 35.9635 126.1 35.9361C121.948 35.9361 118.72 34.7511 116.415 32.381C114.11 30.011 112.958 26.7951 112.958 22.7335C112.941 20.925 113.229 19.1266 113.81 17.4139C114.335 15.8524 115.182 14.4188 116.297 13.2064C117.418 12.0161 118.794 11.0964 120.322 10.5165C122.016 9.8743 123.815 9.55662 125.626 9.58007C127.897 9.51603 130.143 10.0689 132.126 11.18C133.84 12.1507 135.247 13.5839 136.186 15.3162C137.058 16.8995 137.522 18.6754 137.536 20.4832C137.536 22.1105 137.07 23.1655 136.139 23.6479C134.903 24.1905 133.557 24.4376 132.208 24.3695ZM119.563 20.696H131.283C131.277 18.8839 130.645 17.1296 129.496 15.7297C128.971 15.1808 128.335 14.7501 127.63 14.4661C126.926 14.1821 126.169 14.0514 125.411 14.0827C124.669 14.06 123.93 14.1974 123.246 14.4858C122.561 14.7742 121.947 15.2066 121.444 15.7538C120.297 17.1524 119.637 18.8877 119.564 20.696H119.563Z" fill="url(#paint5_linear_4_860)"/>
<path d="M148.855 13.2054V13.9883C149.837 12.6223 151.111 11.4925 152.585 10.6811C154.027 9.95647 155.624 9.59441 157.237 9.6262C158.831 9.599 160.405 9.98268 161.807 10.7403C163.116 11.4486 164.168 12.5517 164.815 13.8929C165.243 14.6892 165.524 15.5562 165.644 16.4523C165.785 17.6178 165.848 18.7914 165.834 19.9653V32.0096C165.91 33.0654 165.594 34.1122 164.946 34.9484C164.658 35.274 164.302 35.532 163.904 35.7041C163.505 35.8762 163.073 35.9582 162.639 35.9441C162.198 35.9587 161.758 35.8748 161.353 35.6984C160.947 35.522 160.586 35.2576 160.295 34.9243C159.646 34.0987 159.325 33.0621 159.393 32.0136V21.2169C159.482 19.5382 159.178 17.8618 158.504 16.3218C157.913 15.1924 156.733 14.6276 154.965 14.6276C153.831 14.6212 152.726 14.9829 151.816 15.6584C150.851 16.3695 150.124 17.3572 149.732 18.4908C149.333 20.2631 149.174 22.081 149.259 23.8958V32.0016C149.34 33.0655 149.014 34.1204 148.346 34.9525C148.047 35.2761 147.682 35.5314 147.275 35.7012C146.869 35.8709 146.43 35.951 145.99 35.9361C145.556 35.9474 145.124 35.8617 144.727 35.6854C144.329 35.509 143.976 35.2463 143.693 34.9163C143.044 34.0906 142.723 33.054 142.791 32.0056V13.2997C142.714 12.3123 142.999 11.3307 143.593 10.5386C143.87 10.2323 144.212 9.99158 144.593 9.83378C144.975 9.67599 145.386 9.60509 145.799 9.6262C146.338 9.61842 146.87 9.75716 147.338 10.0277C147.814 10.3145 148.196 10.7328 148.441 11.2321C148.734 11.8473 148.876 12.524 148.855 13.2054Z" fill="url(#paint6_linear_4_860)"/>
<path d="M172.627 10.1952H173.337V6.30793C173.337 5.26475 173.365 4.44707 173.42 3.85489C173.459 3.31738 173.616 2.79519 173.882 2.32625C174.142 1.87616 174.518 1.50398 174.97 1.24828C175.452 0.969759 176 0.826556 176.557 0.833755C177.391 0.839069 178.19 1.17084 178.783 1.75815C179.217 2.15634 179.512 2.68437 179.623 3.26369C179.76 4.09782 179.819 4.94289 179.8 5.78801V10.1962H182.168C182.923 10.144 183.67 10.3763 184.263 10.8476C184.499 11.0562 184.685 11.314 184.81 11.6028C184.935 11.8915 184.995 12.2042 184.986 12.5188C185.016 12.8913 184.934 13.2642 184.751 13.5896C184.567 13.915 184.29 14.1779 183.956 14.3445C183.026 14.7389 182.018 14.917 181.008 14.8654H179.805V26.7642C179.794 27.5439 179.829 28.3235 179.912 29.0989C179.959 29.5895 180.158 30.0532 180.48 30.4257C180.681 30.6121 180.918 30.7539 181.178 30.8418C181.437 30.9296 181.712 30.9616 181.984 30.9356C182.502 30.9183 183.018 30.8511 183.523 30.7349C184.021 30.6199 184.528 30.5527 185.038 30.5341C185.303 30.5374 185.565 30.5949 185.807 30.7029C186.05 30.8109 186.267 30.9673 186.447 31.1625C186.652 31.3646 186.814 31.6066 186.921 31.8737C187.029 32.1408 187.082 32.4272 187.075 32.7152C187.065 33.2398 186.897 33.7494 186.593 34.1767C186.289 34.604 185.862 34.929 185.37 35.109C183.816 35.7395 182.144 36.0228 180.469 35.939C178.873 36.0402 177.28 35.6866 175.876 34.9193C174.859 34.2748 174.126 33.266 173.827 32.0989C173.463 30.522 173.3 28.9052 173.342 27.2872V14.8644H172.49C171.722 14.9181 170.961 14.6814 170.359 14.201C170.121 13.9913 169.932 13.7319 169.805 13.4411C169.678 13.1502 169.617 12.835 169.625 12.5178C169.618 12.1989 169.683 11.8825 169.817 11.5928C169.95 11.3032 170.148 11.0479 170.395 10.8466C171.039 10.372 171.83 10.1413 172.627 10.1952Z" fill="url(#paint7_linear_4_860)"/>
<defs>
<linearGradient id="paint0_linear_4_860" x1="24.0165" y1="22.7496" x2="-3.17789" y2="22.7689" gradientUnits="userSpaceOnUse">
<stop stop-color="#FC6446"/>
<stop offset="0.494268" stop-color="#FC663D"/>
<stop offset="0.872319" stop-color="#FC7936"/>
<stop offset="1" stop-color="#FCBF1E"/>
</linearGradient>
<linearGradient id="paint1_linear_4_860" x1="49.8997" y1="22.7469" x2="24.2584" y2="22.7641" gradientUnits="userSpaceOnUse">
<stop stop-color="#FC6446"/>
<stop offset="0.494268" stop-color="#FC663D"/>
<stop offset="0.872319" stop-color="#FC7936"/>
<stop offset="1" stop-color="#FCBF1E"/>
</linearGradient>
<linearGradient id="paint2_linear_4_860" x1="70.0976" y1="18.3486" x2="49.9144" y2="18.3566" gradientUnits="userSpaceOnUse">
<stop stop-color="#FC6446"/>
<stop offset="0.494268" stop-color="#FC663D"/>
<stop offset="0.872319" stop-color="#FC7936"/>
<stop offset="1" stop-color="#FCBF1E"/>
</linearGradient>
<linearGradient id="paint3_linear_4_860" x1="95.964" y1="22.7196" x2="67.2876" y2="22.7411" gradientUnits="userSpaceOnUse">
<stop stop-color="#FC6446"/>
<stop offset="0.494268" stop-color="#FC663D"/>
<stop offset="0.872319" stop-color="#FC7936"/>
<stop offset="1" stop-color="#FCBF1E"/>
</linearGradient>
<linearGradient id="paint4_linear_4_860" x1="107.596" y1="17.9218" x2="100.091" y2="17.9228" gradientUnits="userSpaceOnUse">
<stop stop-color="#FC6446"/>
<stop offset="0.494268" stop-color="#FC663D"/>
<stop offset="0.872319" stop-color="#FC7936"/>
<stop offset="1" stop-color="#FCBF1E"/>
</linearGradient>
<linearGradient id="paint5_linear_4_860" x1="137.893" y1="22.722" x2="109.467" y2="22.7431" gradientUnits="userSpaceOnUse">
<stop stop-color="#FC6446"/>
<stop offset="0.494268" stop-color="#FC663D"/>
<stop offset="0.872319" stop-color="#FC7936"/>
<stop offset="1" stop-color="#FCBF1E"/>
</linearGradient>
<linearGradient id="paint6_linear_4_860" x1="166.18" y1="22.7496" x2="139.503" y2="22.7682" gradientUnits="userSpaceOnUse">
<stop stop-color="#FC6446"/>
<stop offset="0.494268" stop-color="#FC663D"/>
<stop offset="0.872319" stop-color="#FC7936"/>
<stop offset="1" stop-color="#FCBF1E"/>
</linearGradient>
<linearGradient id="paint7_linear_4_860" x1="187.328" y1="18.3486" x2="167.146" y2="18.3566" gradientUnits="userSpaceOnUse">
<stop stop-color="#FC6446"/>
<stop offset="0.494268" stop-color="#FC663D"/>
<stop offset="0.872319" stop-color="#FC7936"/>
<stop offset="1" stop-color="#FCBF1E"/>
</linearGradient>
</defs>
</svg>
