<svg width="20" height="20" viewBox="0 0 20 20" fill="none" xmlns="http://www.w3.org/2000/svg">
<path d="M17.8509 10.0461L18.214 9.70239L17.8509 10.0461ZM10.3966 2.17041L10.0335 2.51412L10.3966 2.17041ZM9.60336 2.17041L9.9665 2.51412L9.60336 2.17041ZM2.14912 10.0461L1.78599 9.70239H1.78599L2.14912 10.0461ZM3.50853 11.5005V17.4584H4.50853V11.5005H3.50853ZM4.55321 18.5H7.27661V17.5H4.55321V18.5ZM8.32129 17.4584V13.1254H7.32129V17.4584H8.32129ZM8.36596 13.0838H11.634V12.0838H8.36596V13.0838ZM11.6787 13.1254V17.4584H12.6787V13.1254H11.6787ZM12.7234 18.5H15.4468V17.5H12.7234V18.5ZM16.5361 11.4589H17.4542V10.4589H16.5361V11.4589ZM18.214 9.70239L10.7598 1.82671L10.0335 2.51412L17.4877 10.3898L18.214 9.70239ZM9.24023 1.82671L1.78599 9.70239L2.51226 10.3898L9.9665 2.51412L9.24023 1.82671ZM2.54576 11.4589H3.46386V10.4589H2.54576V11.4589ZM1.78599 9.70239C1.15316 10.371 1.63539 11.4589 2.54576 11.4589V10.4589C2.52873 10.4589 2.52248 10.4548 2.51985 10.453C2.51513 10.4498 2.50883 10.4432 2.50434 10.4329C2.49985 10.4225 2.49961 10.4141 2.5003 10.4095C2.50061 10.4075 2.50117 10.4056 2.50228 10.4033C2.50332 10.4011 2.50591 10.3965 2.51226 10.3898L1.78599 9.70239ZM10.7598 1.82671C10.3475 1.3911 9.65253 1.3911 9.24023 1.82671L9.9665 2.51412C9.98432 2.49529 10.0157 2.49529 10.0335 2.51412L10.7598 1.82671ZM17.4542 11.4589C18.3646 11.4589 18.8468 10.371 18.214 9.70239L17.4877 10.3898C17.4941 10.3965 17.4967 10.4011 17.4977 10.4033C17.4988 10.4056 17.4994 10.4075 17.4997 10.4095C17.5004 10.4141 17.5002 10.4225 17.4957 10.4329C17.4912 10.4432 17.4849 10.4498 17.4802 10.453C17.4775 10.4548 17.4713 10.4589 17.4542 10.4589V11.4589ZM16.5361 10.4589C15.9618 10.4589 15.4915 10.9226 15.4915 11.5005H16.4915C16.4915 11.4802 16.5088 11.4589 16.5361 11.4589V10.4589ZM15.4468 18.5C16.0211 18.5 16.4915 18.0363 16.4915 17.4584H15.4915C15.4915 17.4787 15.4741 17.5 15.4468 17.5V18.5ZM11.6787 17.4584C11.6787 18.0363 12.1491 18.5 12.7234 18.5V17.5C12.6961 17.5 12.6787 17.4787 12.6787 17.4584H11.6787ZM11.634 13.0838C11.6614 13.0838 11.6787 13.1051 11.6787 13.1254H12.6787C12.6787 12.5475 12.2083 12.0838 11.634 12.0838V13.0838ZM8.32129 13.1254C8.32129 13.1051 8.33863 13.0838 8.36596 13.0838V12.0838C7.79166 12.0838 7.32129 12.5475 7.32129 13.1254H8.32129ZM7.27661 18.5C7.85091 18.5 8.32129 18.0363 8.32129 17.4584H7.32129C7.32129 17.4787 7.30394 17.5 7.27661 17.5V18.5ZM3.50853 17.4584C3.50853 18.0363 3.97891 18.5 4.55321 18.5V17.5C4.52588 17.5 4.50853 17.4787 4.50853 17.4584H3.50853ZM4.50853 11.5005C4.50853 10.9226 4.03816 10.4589 3.46386 10.4589V11.4589C3.49119 11.4589 3.50853 11.4802 3.50853 11.5005H4.50853ZM16.4915 17.4584V11.5005H15.4915V17.4584H16.4915Z" fill="#929292"/>
</svg>
