<svg width="20" height="20" viewBox="0 0 20 20" fill="none" xmlns="http://www.w3.org/2000/svg">
<path d="M12.1528 8.84695C11.5156 9.27274 10.7664 9.5 10 9.5C8.97229 9.5 7.98666 9.09174 7.25996 8.36504C6.53326 7.63834 6.125 6.65272 6.125 5.625C6.125 4.8586 6.35226 4.10941 6.77805 3.47217C7.20385 2.83493 7.80904 2.33826 8.5171 2.04497C9.22516 1.75168 10.0043 1.67494 10.756 1.82446C11.5077 1.97398 12.1981 2.34303 12.74 2.88496C13.282 3.42689 13.651 4.11735 13.8005 4.86903C13.9501 5.6207 13.8733 6.39984 13.58 7.1079C13.2867 7.81596 12.7901 8.42116 12.1528 8.84695ZM2.375 16.25C2.375 14.89 3.48874 13.7666 5.14171 12.9516C6.76639 12.1505 8.72211 11.75 10 11.75C11.2779 11.75 13.2336 12.1505 14.8583 12.9516C16.5113 13.7666 17.625 14.89 17.625 16.25V18.25H2.375V16.25Z" stroke="#929292"/>
</svg>
